G04 Layer_Physical_Order=1*
G04 Layer_Color=255*
%FSLAX25Y25*%
%MOIN*%
G70*
G01*
G75*
%ADD10R,0.04134X0.02559*%
%ADD11R,0.23622X0.11811*%
%ADD12R,0.23622X0.23622*%
%ADD13R,0.02756X0.03937*%
%ADD14R,0.02756X0.01181*%
%ADD15R,0.02165X0.01968*%
%ADD16C,0.00500*%
%ADD17C,0.01000*%
%ADD18C,0.02000*%
%ADD19C,0.03900*%
%ADD20C,0.27559*%
%ADD21C,0.06000*%
%ADD22R,0.06000X0.06000*%
%ADD23O,0.10236X0.04331*%
%ADD24O,0.08268X0.04331*%
%ADD25C,0.05000*%
%ADD26C,0.02400*%
G36*
X123000Y186000D02*
X129000Y180000D01*
X132500D01*
X137500Y175000D01*
Y171044D01*
X137115Y170787D01*
X136628Y170059D01*
X136458Y169201D01*
X136628Y168342D01*
X137115Y167615D01*
X137500Y167357D01*
Y163044D01*
X137115Y162787D01*
X136628Y162059D01*
X136458Y161201D01*
X136628Y160342D01*
X137115Y159615D01*
X137500Y159357D01*
Y156644D01*
X137414Y156586D01*
X136928Y155858D01*
X136757Y155000D01*
X136928Y154142D01*
X137414Y153414D01*
X137500Y153356D01*
Y147500D01*
X135000Y145000D01*
X132121D01*
Y146216D01*
X127365D01*
X127315Y146262D01*
Y146927D01*
X127365Y146972D01*
X127502Y146972D01*
X132121D01*
Y146972D01*
X132621Y147332D01*
X133000Y147257D01*
X133858Y147428D01*
X134586Y147914D01*
X135072Y148642D01*
X135243Y149500D01*
X135072Y150358D01*
X134589Y151082D01*
X135086Y151414D01*
X135572Y152142D01*
X135743Y153000D01*
X135572Y153858D01*
X135144Y154500D01*
X135572Y155142D01*
X135743Y156000D01*
X135572Y156858D01*
X135086Y157586D01*
X134948Y157679D01*
X135383Y158331D01*
X135554Y159189D01*
X135383Y160047D01*
X135122Y160439D01*
X135383Y160831D01*
X135554Y161689D01*
X135383Y162547D01*
X135081Y163000D01*
X135383Y163453D01*
X135554Y164311D01*
X135383Y165169D01*
X134897Y165897D01*
X134169Y166383D01*
X133311Y166554D01*
X132453Y166383D01*
X131731Y165902D01*
X130786D01*
X130753Y166402D01*
X130923Y166424D01*
X131693Y166743D01*
X132354Y167250D01*
X132862Y167912D01*
X133181Y168682D01*
X133290Y169508D01*
X133181Y170334D01*
X132862Y171104D01*
X132354Y171765D01*
X131693Y172273D01*
X130923Y172592D01*
X130097Y172701D01*
X126160D01*
X125333Y172592D01*
X124564Y172273D01*
X123902Y171765D01*
X123395Y171104D01*
X123076Y170334D01*
X122967Y169508D01*
X123076Y168682D01*
X123286Y168173D01*
X122980Y167673D01*
X122247D01*
Y167210D01*
X121747Y166840D01*
X121205Y166948D01*
X120346Y166777D01*
X119619Y166291D01*
X119132Y165563D01*
X118962Y164705D01*
X119132Y163846D01*
X119394Y163455D01*
X119132Y163063D01*
X118962Y162205D01*
X119132Y161346D01*
X119394Y160955D01*
X119132Y160563D01*
X118962Y159705D01*
X119132Y158846D01*
X119619Y158119D01*
X120346Y157632D01*
X121205Y157462D01*
X122063Y157632D01*
X122313Y157799D01*
X126959D01*
X127002Y157799D01*
X127052Y157754D01*
Y157523D01*
X126571Y157043D01*
X122247D01*
Y155863D01*
X121747Y155582D01*
X121016Y155727D01*
X120157Y155557D01*
X119430Y155070D01*
X118943Y154343D01*
X118773Y153484D01*
X118943Y152626D01*
X119430Y151898D01*
X119643Y151755D01*
Y151255D01*
X119461Y151133D01*
X118975Y150406D01*
X118804Y149547D01*
X118975Y148689D01*
X119461Y147961D01*
X120189Y147475D01*
X121047Y147304D01*
X121856Y147465D01*
X122084Y147279D01*
X122247Y147101D01*
Y145000D01*
X101020Y145000D01*
Y167466D01*
X101520Y167636D01*
X101816Y167250D01*
X102477Y166743D01*
X103247Y166424D01*
X104073Y166315D01*
X109979D01*
X110805Y166424D01*
X111575Y166743D01*
X112236Y167250D01*
X112744Y167912D01*
X113063Y168682D01*
X113171Y169508D01*
X113063Y170334D01*
X112744Y171104D01*
X112236Y171765D01*
X111575Y172273D01*
X110805Y172592D01*
X109979Y172701D01*
X104073D01*
X103247Y172592D01*
X102477Y172273D01*
X101816Y171765D01*
X101520Y171379D01*
X101020Y171549D01*
Y192500D01*
X123000D01*
Y186000D01*
D02*
G37*
G36*
X130657Y171598D02*
X131179Y171382D01*
X131627Y171038D01*
X131971Y170590D01*
X132187Y170068D01*
X132261Y169508D01*
X132187Y168948D01*
X131971Y168426D01*
X131627Y167977D01*
X131179Y167634D01*
X130657Y167417D01*
X130620Y167412D01*
X130462Y167359D01*
X130302Y167316D01*
X130275Y167295D01*
X130243Y167285D01*
X130118Y167175D01*
X129986Y167074D01*
X129969Y167045D01*
X129944Y167022D01*
X129870Y166873D01*
X129787Y166729D01*
X129783Y166696D01*
X129768Y166665D01*
X129757Y166500D01*
X129735Y166335D01*
X129768Y165835D01*
X129811Y165674D01*
X129844Y165511D01*
X129862Y165483D01*
X129871Y165451D01*
X129972Y165319D01*
X130065Y165181D01*
X130093Y165162D01*
X130113Y165135D01*
X130257Y165052D01*
X130395Y164960D01*
X130429Y164953D01*
X130458Y164936D01*
X130623Y164914D01*
X130786Y164882D01*
X131731D01*
X131830Y164902D01*
X131930D01*
X132023Y164940D01*
X132122Y164960D01*
X132205Y165015D01*
X132298Y165054D01*
X132850Y165423D01*
X133311Y165515D01*
X133772Y165423D01*
X134162Y165162D01*
X134423Y164772D01*
X134515Y164311D01*
X134423Y163850D01*
X134233Y163567D01*
X134233Y163567D01*
X134081Y163199D01*
Y162801D01*
X134233Y162434D01*
X134233Y162434D01*
X134423Y162150D01*
X134515Y161689D01*
X134423Y161228D01*
X134274Y161005D01*
X134122Y160638D01*
Y160240D01*
X134274Y159872D01*
X134423Y159650D01*
X134515Y159189D01*
X134423Y158728D01*
X134100Y158245D01*
X134100Y158245D01*
X134054Y158133D01*
X133500Y158243D01*
X132642Y158072D01*
X132621Y158058D01*
X132121Y158326D01*
Y160752D01*
Y163933D01*
X127365D01*
Y163282D01*
X127002Y162949D01*
X122247D01*
Y158951D01*
X120289D01*
X120093Y159244D01*
X120001Y159705D01*
X120093Y160165D01*
X120242Y160388D01*
X120394Y160756D01*
Y161154D01*
X120242Y161521D01*
X120093Y161744D01*
X120001Y162205D01*
X120093Y162665D01*
X120242Y162888D01*
X120394Y163256D01*
Y163654D01*
X120242Y164021D01*
X120093Y164244D01*
X120001Y164705D01*
X120093Y165165D01*
X120354Y165556D01*
X120744Y165817D01*
X121205Y165908D01*
X121547Y165840D01*
X121572D01*
X121596Y165832D01*
X121771Y165840D01*
X121945D01*
X121968Y165850D01*
X121993Y165851D01*
X122151Y165925D01*
X122313Y165992D01*
X122330Y166010D01*
X122353Y166021D01*
X122853Y166391D01*
X122904Y166447D01*
X122967Y166489D01*
X123037Y166593D01*
X123114Y166678D01*
X123218Y166682D01*
X123291Y166716D01*
X123370Y166731D01*
X123470Y166798D01*
X123579Y166848D01*
X123634Y166907D01*
X123701Y166952D01*
X123768Y167052D01*
X123849Y167140D01*
X124156Y167640D01*
X124184Y167716D01*
X124229Y167783D01*
X124252Y167901D01*
X124293Y168014D01*
X124290Y168094D01*
X124306Y168173D01*
X124283Y168291D01*
X124278Y168411D01*
X124244Y168484D01*
X124229Y168563D01*
X124069Y168948D01*
X123996Y169508D01*
X124069Y170068D01*
X124285Y170590D01*
X124629Y171038D01*
X125078Y171382D01*
X125600Y171598D01*
X126227Y171681D01*
X130030D01*
X130657Y171598D01*
D02*
G37*
G36*
X271480Y101020D02*
X245422D01*
X236442Y110000D01*
X243748Y117306D01*
X243793Y117373D01*
X243852Y117428D01*
X243902Y117537D01*
X243969Y117637D01*
X243985Y117716D01*
X244019Y117789D01*
X244373Y119265D01*
X244442Y119432D01*
X244520Y119822D01*
Y127453D01*
X245000Y127500D01*
Y127500D01*
X271480D01*
Y101020D01*
D02*
G37*
G36*
X218356Y222500D02*
X218414Y222414D01*
X219142Y221928D01*
X220000Y221757D01*
X220858Y221928D01*
X221586Y222414D01*
X221644Y222500D01*
X239000D01*
X243343Y218157D01*
X243400Y217919D01*
X243500Y217678D01*
Y197802D01*
X242149Y196451D01*
X241873Y196038D01*
X241775Y195550D01*
Y153950D01*
X241873Y153462D01*
X242149Y153049D01*
X243500Y151698D01*
Y137467D01*
X243428Y137358D01*
X243257Y136500D01*
X243428Y135642D01*
X243500Y135533D01*
Y119822D01*
X243400Y119581D01*
X243027Y118027D01*
X235721Y110721D01*
X235390Y110942D01*
X235000Y111020D01*
X157500D01*
Y115000D01*
X172957D01*
X173217Y114611D01*
X173945Y114125D01*
X174803Y113954D01*
X175662Y114125D01*
X176389Y114611D01*
X176649Y115000D01*
X203219D01*
X203532Y114532D01*
X204260Y114046D01*
X205118Y113875D01*
X205977Y114046D01*
X206704Y114532D01*
X207017Y115000D01*
X208739D01*
X209044Y114544D01*
X209771Y114058D01*
X210630Y113887D01*
X211488Y114058D01*
X212216Y114544D01*
X212521Y115000D01*
X222492D01*
X222823Y114504D01*
X223551Y114018D01*
X224409Y113847D01*
X225268Y114018D01*
X225996Y114504D01*
X226327Y115000D01*
X227500D01*
X235000Y122500D01*
Y151533D01*
X235072Y151642D01*
X235243Y152500D01*
X235150Y152970D01*
X235177Y153012D01*
X235275Y153500D01*
Y166972D01*
X237238Y168935D01*
X237514Y169349D01*
X237611Y169837D01*
Y177663D01*
X237514Y178151D01*
X237238Y178565D01*
X235000Y180802D01*
Y183488D01*
X235736D01*
Y188047D01*
X235000D01*
Y191953D01*
X235736D01*
Y196512D01*
X235000D01*
Y203488D01*
X235736D01*
Y208047D01*
X235000D01*
Y211953D01*
X235736D01*
Y216512D01*
X229602D01*
Y216000D01*
X228967D01*
X228858Y216072D01*
X228000Y216243D01*
X227142Y216072D01*
X227033Y216000D01*
X223467Y216000D01*
X223358Y216072D01*
X222500Y216243D01*
X221642Y216072D01*
X221533Y216000D01*
X219398D01*
Y216512D01*
X213264D01*
Y216000D01*
X205000Y216000D01*
X203000Y214000D01*
X203000Y211500D01*
X201500Y210000D01*
X192391D01*
X192278Y210564D01*
X191792Y211292D01*
X191064Y211778D01*
X190206Y211949D01*
X190000Y212118D01*
Y221000D01*
X192000Y222500D01*
X218356Y222500D01*
D02*
G37*
G36*
X110539Y171598D02*
X111061Y171382D01*
X111509Y171038D01*
X111853Y170590D01*
X112069Y170068D01*
X112143Y169508D01*
X112069Y168948D01*
X111853Y168426D01*
X111509Y167977D01*
X111061Y167634D01*
X110539Y167417D01*
X109912Y167335D01*
X104140D01*
X103513Y167417D01*
X102991Y167634D01*
X102543Y167977D01*
X102328Y168257D01*
X102303Y168279D01*
X102286Y168308D01*
X102154Y168410D01*
X102029Y168519D01*
X101997Y168530D01*
X101971Y168551D01*
X101810Y168594D01*
X101653Y168647D01*
X101619Y168645D01*
X101586Y168654D01*
X101520Y168645D01*
X101264Y168783D01*
X101067Y168974D01*
X101020Y169062D01*
Y169954D01*
X101067Y170041D01*
X101264Y170232D01*
X101520Y170371D01*
X101586Y170362D01*
X101619Y170371D01*
X101653Y170369D01*
X101810Y170422D01*
X101971Y170465D01*
X101997Y170486D01*
X102029Y170496D01*
X102154Y170606D01*
X102286Y170707D01*
X102303Y170737D01*
X102328Y170759D01*
X102543Y171038D01*
X102991Y171382D01*
X103513Y171598D01*
X104140Y171681D01*
X109912D01*
X110539Y171598D01*
D02*
G37*
G36*
X271480Y210000D02*
X245000D01*
Y210000D01*
X244520Y210047D01*
Y217678D01*
X244442Y218068D01*
X244373Y218235D01*
X244335Y218395D01*
X244301Y218468D01*
X244285Y218547D01*
X244218Y218647D01*
X244168Y218756D01*
X244109Y218811D01*
X244064Y218878D01*
X239721Y223221D01*
X239390Y223442D01*
X239000Y223520D01*
X232542D01*
X232224Y223906D01*
X232243Y224000D01*
X232072Y224858D01*
X231586Y225586D01*
X230858Y226072D01*
X230000Y226243D01*
X229142Y226072D01*
X228414Y225586D01*
X227928Y224858D01*
X227757Y224000D01*
X227776Y223906D01*
X227458Y223520D01*
X221644D01*
X221545Y223500D01*
X221445D01*
X221352Y223462D01*
X221253Y223442D01*
X221170Y223386D01*
X221077Y223348D01*
X221006Y223277D01*
X220923Y223221D01*
X220894Y223177D01*
X220461Y222888D01*
X220000Y222797D01*
X219539Y222888D01*
X219106Y223177D01*
X219077Y223221D01*
X218994Y223277D01*
X218923Y223348D01*
X218830Y223386D01*
X218746Y223442D01*
X218648Y223462D01*
X218555Y223500D01*
X218455D01*
X218356Y223520D01*
X207376D01*
X207199Y224020D01*
X207577Y224512D01*
X207874Y225230D01*
X207976Y226000D01*
X207874Y226770D01*
X207577Y227488D01*
X207104Y228104D01*
X206488Y228577D01*
X205770Y228874D01*
X205000Y228976D01*
X204230Y228874D01*
X203512Y228577D01*
X202896Y228104D01*
X202423Y227488D01*
X202126Y226770D01*
X202025Y226000D01*
X202126Y225230D01*
X202423Y224512D01*
X202801Y224020D01*
X202624Y223520D01*
X192000D01*
X191875Y223495D01*
X191747Y223488D01*
X191681Y223456D01*
X191610Y223442D01*
X191504Y223371D01*
X191388Y223316D01*
X189388Y221816D01*
X189340Y221761D01*
X189279Y221721D01*
X189208Y221615D01*
X189123Y221519D01*
X189099Y221451D01*
X189058Y221390D01*
X189033Y221265D01*
X188991Y221144D01*
X188995Y221072D01*
X188980Y221000D01*
Y212118D01*
X188990Y212068D01*
X188985Y212018D01*
X189029Y211875D01*
X189058Y211728D01*
X189086Y211686D01*
X189101Y211637D01*
X189196Y211522D01*
X189279Y211397D01*
X189321Y211369D01*
X189353Y211330D01*
X189559Y211161D01*
X189604Y211137D01*
X189639Y211101D01*
X189778Y211044D01*
X189910Y210973D01*
X189960Y210968D01*
X190007Y210949D01*
X190666Y210818D01*
X191057Y210557D01*
X191318Y210167D01*
X191391Y209801D01*
X191429Y209708D01*
X191448Y209610D01*
X191504Y209526D01*
X191543Y209434D01*
X191614Y209363D01*
X191670Y209279D01*
X191753Y209223D01*
X191824Y209152D01*
X191917Y209114D01*
X192000Y209058D01*
X192099Y209038D01*
X192192Y209000D01*
X192292D01*
X192391Y208980D01*
X201500D01*
X201890Y209058D01*
X202221Y209279D01*
X202749Y209807D01*
X203000Y209757D01*
X203858Y209928D01*
X204586Y210414D01*
X205072Y211142D01*
X205243Y212000D01*
X205072Y212858D01*
X204586Y213586D01*
X204612Y214170D01*
X205422Y214980D01*
X208417D01*
Y211646D01*
X212583D01*
Y211929D01*
X212764Y212027D01*
X213264Y211953D01*
Y211953D01*
X219398D01*
Y212725D01*
X220706D01*
X220914Y212414D01*
X221642Y211928D01*
X222500Y211757D01*
X223358Y211928D01*
X224086Y212414D01*
X224294Y212725D01*
X226206D01*
X226414Y212414D01*
X227142Y211928D01*
X228000Y211757D01*
X228858Y211928D01*
X229102Y212091D01*
X229602Y211953D01*
Y211953D01*
X229602Y211953D01*
X233980D01*
Y208047D01*
X234058Y207657D01*
X234279Y207326D01*
X234610Y207105D01*
X234717Y207084D01*
Y204451D01*
X234610Y204430D01*
X234279Y204209D01*
X234058Y203878D01*
X233980Y203488D01*
Y196512D01*
X234058Y196122D01*
X234279Y195791D01*
X234610Y195570D01*
X234717Y195549D01*
Y192916D01*
X234610Y192895D01*
X234279Y192674D01*
X234058Y192343D01*
X233980Y191953D01*
Y188047D01*
X230774D01*
Y201500D01*
X230678Y201988D01*
X230401Y202401D01*
X228401Y204401D01*
X227988Y204678D01*
X227500Y204774D01*
X210000D01*
X209512Y204678D01*
X209099Y204401D01*
X206972Y202274D01*
X203500D01*
X203012Y202178D01*
X202599Y201901D01*
X200868Y200170D01*
X200500Y200243D01*
X199642Y200072D01*
X198914Y199586D01*
X198428Y198858D01*
X198257Y198000D01*
X198428Y197142D01*
X198914Y196414D01*
X199642Y195928D01*
X200315Y195794D01*
X200257Y195500D01*
X200428Y194642D01*
X200914Y193914D01*
X201642Y193428D01*
X202500Y193257D01*
X203358Y193428D01*
X204086Y193914D01*
X204572Y194642D01*
X204743Y195500D01*
X205177Y195551D01*
X205192Y195550D01*
X205192Y195550D01*
X205341Y195579D01*
X205428Y195142D01*
X205914Y194414D01*
X206642Y193928D01*
X207500Y193757D01*
X208358Y193928D01*
X209086Y194414D01*
X209572Y195142D01*
X209743Y196000D01*
X209670Y196368D01*
X212528Y199225D01*
X225225D01*
Y175500D01*
X225323Y175012D01*
X225599Y174599D01*
X229313Y170884D01*
X229727Y170608D01*
X230215Y170511D01*
X232592D01*
X232801Y170199D01*
X233528Y169713D01*
X233744Y169670D01*
X233889Y169192D01*
X233099Y168401D01*
X232822Y167988D01*
X232726Y167500D01*
Y154689D01*
X232142Y154572D01*
X231414Y154086D01*
X230928Y153358D01*
X230757Y152500D01*
X230928Y151642D01*
X231414Y150914D01*
X232142Y150428D01*
X233000Y150257D01*
X233480Y150353D01*
X233980Y149954D01*
Y122922D01*
X227078Y116020D01*
X226327D01*
X226228Y116000D01*
X226128D01*
X226035Y115962D01*
X225937Y115942D01*
X225853Y115886D01*
X225760Y115848D01*
X225689Y115777D01*
X225606Y115721D01*
X225550Y115638D01*
X225479Y115567D01*
X225260Y115240D01*
X224870Y114979D01*
X224409Y114887D01*
X223949Y114979D01*
X223558Y115240D01*
X223340Y115567D01*
X223269Y115637D01*
X223213Y115721D01*
X223130Y115777D01*
X223059Y115848D01*
X222966Y115886D01*
X222882Y115942D01*
X222784Y115962D01*
X222691Y116000D01*
X222591D01*
X222492Y116020D01*
X212521D01*
X212422Y116000D01*
X212322D01*
X212229Y115962D01*
X212131Y115942D01*
X212047Y115886D01*
X211954Y115848D01*
X211883Y115777D01*
X211800Y115721D01*
X211744Y115637D01*
X211673Y115567D01*
X211481Y115279D01*
X211090Y115018D01*
X210630Y114926D01*
X210169Y115018D01*
X209779Y115279D01*
X209587Y115567D01*
X209516Y115638D01*
X209460Y115721D01*
X209377Y115777D01*
X209305Y115848D01*
X209213Y115886D01*
X209129Y115942D01*
X209031Y115962D01*
X208938Y116000D01*
X208838D01*
X208739Y116020D01*
X207017D01*
X206918Y116000D01*
X206818D01*
X206725Y115962D01*
X206627Y115942D01*
X206543Y115886D01*
X206451Y115848D01*
X206380Y115777D01*
X206296Y115721D01*
X206240Y115638D01*
X206169Y115567D01*
X205969Y115267D01*
X205579Y115006D01*
X205118Y114915D01*
X204658Y115006D01*
X204267Y115267D01*
X204067Y115567D01*
X203996Y115638D01*
X203940Y115721D01*
X203857Y115777D01*
X203786Y115848D01*
X203693Y115886D01*
X203609Y115942D01*
X203511Y115962D01*
X203418Y116000D01*
X203318D01*
X203219Y116020D01*
X176649D01*
X176551Y116000D01*
X176451D01*
X176358Y115962D01*
X176259Y115942D01*
X176176Y115886D01*
X176083Y115848D01*
X176012Y115777D01*
X175928Y115721D01*
X175873Y115637D01*
X175802Y115567D01*
X175654Y115346D01*
X175264Y115085D01*
X174803Y114993D01*
X174343Y115085D01*
X173952Y115346D01*
X173805Y115567D01*
X173734Y115637D01*
X173678Y115721D01*
X173594Y115777D01*
X173523Y115848D01*
X173431Y115886D01*
X173347Y115942D01*
X173249Y115962D01*
X173156Y116000D01*
X173055D01*
X172957Y116020D01*
X157500D01*
X157110Y115942D01*
X156779Y115721D01*
X156558Y115390D01*
X156480Y115000D01*
Y111020D01*
X140000D01*
X139610Y110942D01*
X139279Y110721D01*
X129578Y101020D01*
X101020D01*
Y143980D01*
X122247Y143980D01*
Y142051D01*
X127002D01*
X127365Y141718D01*
Y141067D01*
X132121D01*
Y143980D01*
X135000D01*
X135390Y144058D01*
X135721Y144279D01*
X138221Y146779D01*
X138442Y147110D01*
X138520Y147500D01*
Y153356D01*
X138500Y153455D01*
Y153555D01*
X138462Y153648D01*
X138442Y153746D01*
X138386Y153830D01*
X138348Y153923D01*
X138277Y153994D01*
X138221Y154077D01*
X138177Y154106D01*
X137888Y154539D01*
X137796Y155000D01*
X137888Y155461D01*
X138177Y155894D01*
X138221Y155923D01*
X138277Y156006D01*
X138348Y156077D01*
X138386Y156170D01*
X138442Y156254D01*
X138462Y156352D01*
X138500Y156445D01*
Y156545D01*
X138520Y156644D01*
Y159357D01*
X138500Y159456D01*
Y159556D01*
X138462Y159649D01*
X138442Y159747D01*
X138386Y159831D01*
X138348Y159924D01*
X138277Y159995D01*
X138221Y160078D01*
X138137Y160134D01*
X138066Y160205D01*
X137850Y160350D01*
X137589Y160740D01*
X137497Y161201D01*
X137589Y161661D01*
X137850Y162052D01*
X138066Y162197D01*
X138137Y162268D01*
X138221Y162323D01*
X138277Y162407D01*
X138348Y162478D01*
X138386Y162571D01*
X138442Y162654D01*
X138462Y162753D01*
X138500Y162845D01*
Y162946D01*
X138520Y163044D01*
Y167357D01*
X138500Y167456D01*
Y167556D01*
X138462Y167649D01*
X138442Y167747D01*
X138386Y167831D01*
X138348Y167924D01*
X138277Y167995D01*
X138221Y168078D01*
X138137Y168134D01*
X138066Y168205D01*
X137850Y168350D01*
X137589Y168740D01*
X137497Y169201D01*
X137589Y169661D01*
X137850Y170052D01*
X138066Y170197D01*
X138137Y170268D01*
X138221Y170323D01*
X138277Y170407D01*
X138348Y170478D01*
X138386Y170571D01*
X138442Y170654D01*
X138462Y170753D01*
X138500Y170845D01*
Y170946D01*
X138520Y171044D01*
Y175000D01*
X138442Y175390D01*
X138221Y175721D01*
X133221Y180721D01*
X132890Y180942D01*
X132500Y181020D01*
X129422D01*
X127438Y183004D01*
X127662Y183487D01*
X128544Y183603D01*
X129517Y184006D01*
X130353Y184647D01*
X130994Y185483D01*
X131397Y186456D01*
X131535Y187500D01*
X131397Y188544D01*
X130994Y189517D01*
X130353Y190353D01*
X129517Y190994D01*
X128544Y191397D01*
X127500Y191534D01*
X126456Y191397D01*
X125483Y190994D01*
X124647Y190353D01*
X124493Y190152D01*
X124020Y190313D01*
Y192500D01*
X123942Y192890D01*
X123721Y193221D01*
X123390Y193442D01*
X123000Y193520D01*
X101020D01*
Y236480D01*
X142837D01*
X142970Y236030D01*
X142965Y235981D01*
X142147Y235353D01*
X141506Y234517D01*
X141103Y233544D01*
X140965Y232500D01*
X141103Y231456D01*
X141506Y230483D01*
X142147Y229647D01*
X142983Y229006D01*
X143956Y228603D01*
X145000Y228466D01*
X146044Y228603D01*
X147017Y229006D01*
X147853Y229647D01*
X148494Y230483D01*
X148897Y231456D01*
X149035Y232500D01*
X148897Y233544D01*
X148494Y234517D01*
X147853Y235353D01*
X147035Y235981D01*
X147030Y236030D01*
X147163Y236480D01*
X152837D01*
X152970Y236030D01*
X152965Y235981D01*
X152147Y235353D01*
X151506Y234517D01*
X151103Y233544D01*
X150965Y232500D01*
X151103Y231456D01*
X151506Y230483D01*
X152147Y229647D01*
X152983Y229006D01*
X153956Y228603D01*
X155000Y228466D01*
X156044Y228603D01*
X157017Y229006D01*
X157853Y229647D01*
X158494Y230483D01*
X158897Y231456D01*
X159035Y232500D01*
X158897Y233544D01*
X158494Y234517D01*
X157853Y235353D01*
X157035Y235981D01*
X157030Y236030D01*
X157163Y236480D01*
X162837D01*
X162970Y236030D01*
X162965Y235981D01*
X162147Y235353D01*
X161506Y234517D01*
X161103Y233544D01*
X160966Y232500D01*
X161103Y231456D01*
X161506Y230483D01*
X162147Y229647D01*
X162983Y229006D01*
X163956Y228603D01*
X165000Y228466D01*
X166044Y228603D01*
X167017Y229006D01*
X167853Y229647D01*
X168494Y230483D01*
X168897Y231456D01*
X169035Y232500D01*
X168897Y233544D01*
X168494Y234517D01*
X167853Y235353D01*
X167035Y235981D01*
X167030Y236030D01*
X167163Y236480D01*
X172837D01*
X172970Y236030D01*
X172965Y235981D01*
X172147Y235353D01*
X171506Y234517D01*
X171103Y233544D01*
X170966Y232500D01*
X171103Y231456D01*
X171506Y230483D01*
X172147Y229647D01*
X172983Y229006D01*
X173956Y228603D01*
X175000Y228466D01*
X176044Y228603D01*
X177017Y229006D01*
X177853Y229647D01*
X178494Y230483D01*
X178897Y231456D01*
X179034Y232500D01*
X178897Y233544D01*
X178494Y234517D01*
X177853Y235353D01*
X177035Y235981D01*
X177030Y236030D01*
X177163Y236480D01*
X182837D01*
X182970Y236030D01*
X182965Y235981D01*
X182147Y235353D01*
X181506Y234517D01*
X181103Y233544D01*
X180965Y232500D01*
X181103Y231456D01*
X181506Y230483D01*
X182147Y229647D01*
X182983Y229006D01*
X183956Y228603D01*
X185000Y228466D01*
X186044Y228603D01*
X187017Y229006D01*
X187853Y229647D01*
X188494Y230483D01*
X188897Y231456D01*
X189034Y232500D01*
X188897Y233544D01*
X188494Y234517D01*
X187853Y235353D01*
X187035Y235981D01*
X187030Y236030D01*
X187163Y236480D01*
X202624D01*
X202801Y235981D01*
X202423Y235488D01*
X202126Y234770D01*
X202025Y234000D01*
X202126Y233230D01*
X202423Y232512D01*
X202896Y231896D01*
X203512Y231423D01*
X204230Y231126D01*
X205000Y231025D01*
X205770Y231126D01*
X206488Y231423D01*
X207104Y231896D01*
X207577Y232512D01*
X207874Y233230D01*
X207976Y234000D01*
X207874Y234770D01*
X207577Y235488D01*
X207199Y235981D01*
X207376Y236480D01*
X271480D01*
Y210000D01*
D02*
G37*
%LPC*%
G36*
X188000Y161243D02*
X187142Y161072D01*
X186414Y160586D01*
X185928Y159858D01*
X185757Y159000D01*
X185928Y158142D01*
X186414Y157414D01*
X186725Y157206D01*
Y154528D01*
X185099Y152901D01*
X184822Y152488D01*
X184725Y152000D01*
Y147794D01*
X184414Y147586D01*
X183928Y146858D01*
X183757Y146000D01*
X183928Y145142D01*
X184414Y144414D01*
X184911Y144082D01*
X184428Y143358D01*
X184257Y142500D01*
X184428Y141642D01*
X184914Y140914D01*
X185642Y140428D01*
X186500Y140257D01*
X187358Y140428D01*
X188086Y140914D01*
X188294Y141226D01*
X191206D01*
X191414Y140914D01*
X192142Y140428D01*
X193000Y140257D01*
X193858Y140428D01*
X194586Y140914D01*
X195072Y141642D01*
X195243Y142500D01*
X195072Y143358D01*
X194586Y144086D01*
X193858Y144572D01*
X193000Y144743D01*
X192142Y144572D01*
X191414Y144086D01*
X191206Y143774D01*
X188294D01*
X188086Y144086D01*
X187589Y144418D01*
X188072Y145142D01*
X188243Y146000D01*
X188072Y146858D01*
X187586Y147586D01*
X187275Y147794D01*
Y151472D01*
X188901Y153099D01*
X189178Y153512D01*
X189275Y154000D01*
Y157206D01*
X189586Y157414D01*
X190072Y158142D01*
X190243Y159000D01*
X190072Y159858D01*
X189586Y160586D01*
X188858Y161072D01*
X188000Y161243D01*
D02*
G37*
G36*
X235000Y232976D02*
X234230Y232874D01*
X233512Y232577D01*
X232896Y232104D01*
X232423Y231488D01*
X232126Y230770D01*
X232025Y230000D01*
X232126Y229230D01*
X232423Y228512D01*
X232896Y227896D01*
X233512Y227423D01*
X234230Y227126D01*
X235000Y227025D01*
X235770Y227126D01*
X236488Y227423D01*
X237104Y227896D01*
X237577Y228512D01*
X237874Y229230D01*
X237976Y230000D01*
X237874Y230770D01*
X237577Y231488D01*
X237104Y232104D01*
X236488Y232577D01*
X235770Y232874D01*
X235000Y232976D01*
D02*
G37*
G36*
X219398Y188047D02*
X213264D01*
Y183488D01*
X219398D01*
Y188047D01*
D02*
G37*
G36*
X201500Y187743D02*
X200642Y187572D01*
X199914Y187086D01*
X199662Y186709D01*
X191887D01*
X191808Y186724D01*
X186879D01*
X186358Y187072D01*
X185500Y187243D01*
X184642Y187072D01*
X183914Y186586D01*
X183428Y185858D01*
X183257Y185000D01*
X183428Y184142D01*
X183914Y183414D01*
Y183086D01*
X183428Y182358D01*
X183257Y181500D01*
X183428Y180642D01*
X183914Y179914D01*
X184642Y179428D01*
X185500Y179257D01*
X186358Y179428D01*
X187086Y179914D01*
X187317Y180260D01*
X199709D01*
X199930Y179930D01*
X200657Y179443D01*
X201516Y179273D01*
X202374Y179443D01*
X203102Y179930D01*
X203588Y180657D01*
X203759Y181516D01*
X203588Y182374D01*
X203102Y183102D01*
X202860Y183263D01*
Y183763D01*
X203086Y183914D01*
X203572Y184642D01*
X203743Y185500D01*
X203572Y186358D01*
X203086Y187086D01*
X202358Y187572D01*
X201500Y187743D01*
D02*
G37*
G36*
X148500Y166743D02*
X147642Y166572D01*
X146914Y166086D01*
X146428Y165358D01*
X146257Y164500D01*
X146428Y163642D01*
X146461Y163592D01*
Y149345D01*
X145200Y148084D01*
X145142Y148072D01*
X144414Y147586D01*
X143928Y146858D01*
X143757Y146000D01*
X143928Y145142D01*
X144414Y144414D01*
X145142Y143928D01*
X146000Y143757D01*
X146858Y143928D01*
X147586Y144414D01*
X148072Y145142D01*
X148084Y145200D01*
X149942Y147058D01*
X150384Y147720D01*
X150539Y148500D01*
Y163592D01*
X150572Y163642D01*
X150743Y164500D01*
X150572Y165358D01*
X150086Y166086D01*
X149358Y166572D01*
X148500Y166743D01*
D02*
G37*
%LPD*%
D10*
X232669Y185768D02*
D03*
X216331D02*
D03*
X232669Y194232D02*
D03*
X216331D02*
D03*
Y214232D02*
D03*
X232669D02*
D03*
X216331Y205768D02*
D03*
X232669D02*
D03*
D11*
X259000Y199709D02*
D03*
Y138291D02*
D03*
D12*
Y156598D02*
D03*
Y181402D02*
D03*
D13*
X124624Y164705D02*
D03*
Y140295D02*
D03*
D14*
Y161358D02*
D03*
Y159390D02*
D03*
Y157421D02*
D03*
Y155453D02*
D03*
Y153484D02*
D03*
Y151516D02*
D03*
Y149547D02*
D03*
Y147579D02*
D03*
Y145610D02*
D03*
Y143642D02*
D03*
X129743Y140689D02*
D03*
Y142657D02*
D03*
Y144626D02*
D03*
Y146595D02*
D03*
Y148563D02*
D03*
Y150531D02*
D03*
Y154469D02*
D03*
Y156437D02*
D03*
Y158405D02*
D03*
Y160374D02*
D03*
Y162343D02*
D03*
Y164311D02*
D03*
D15*
X210500Y213630D02*
D03*
Y217370D02*
D03*
D16*
X203500Y201000D02*
X207500D01*
X200500Y198000D02*
X203500Y201000D01*
X210500Y213630D02*
X212500D01*
X213102Y214232D01*
X216331D01*
X207500Y201000D02*
X210000Y203500D01*
X210500Y202500D02*
X227086D01*
X202500Y198414D02*
X204086Y200000D01*
X208000D01*
X210500Y202500D01*
X211000Y201500D02*
X226500D01*
X207450Y197950D02*
X211000Y201500D01*
X205349Y197950D02*
X207450D01*
X205192Y197793D02*
X205349Y197950D01*
X212000Y200500D02*
X226086D01*
X207500Y196000D02*
X212000Y200500D01*
X202500Y195500D02*
Y198414D01*
X203000Y212000D02*
Y217500D01*
X201500Y219000D02*
X203000Y217500D01*
X201500Y219000D02*
X202500Y220000D01*
X222500Y214000D02*
X228000D01*
X216563D02*
X222500D01*
X226500Y175500D02*
Y200086D01*
X226086Y200500D02*
X226500Y200086D01*
X229500Y181500D02*
Y201500D01*
X227500Y203500D02*
X229500Y201500D01*
X210000Y203500D02*
X227500D01*
Y177000D02*
Y200500D01*
X226500Y201500D02*
X227500Y200500D01*
X228500Y179000D02*
Y201086D01*
X227086Y202500D02*
X228500Y201086D01*
X230000Y220000D02*
X236000D01*
X202500D02*
X230000D01*
Y224000D01*
X185500Y185000D02*
X185950Y185450D01*
X191808D01*
X191823Y185434D02*
X201434D01*
X191808Y185450D02*
X191823Y185434D01*
X191000Y183500D02*
X198969D01*
X198984Y183484D01*
X185534Y181534D02*
X200466D01*
X185500Y181500D02*
X185534Y181534D01*
X188000Y154000D02*
Y159000D01*
X201434Y185434D02*
X201500Y185500D01*
X201000Y181000D02*
X201516Y181516D01*
X132500Y153000D02*
X133500D01*
X128969Y154469D02*
X129743D01*
X131032D01*
X126016Y151516D02*
X128969Y154469D01*
X131032D02*
X132500Y153000D01*
X124624Y151516D02*
X126016D01*
X121016Y153484D02*
X124624D01*
X121047Y149547D02*
X124624D01*
X133063Y156437D02*
X133500Y156000D01*
X129743Y156437D02*
X133063D01*
X236000Y211500D02*
X238000Y213500D01*
Y218000D01*
X236000Y220000D02*
X238000Y218000D01*
X216331Y214232D02*
X216563Y214000D01*
X228500Y179000D02*
X230500Y177000D01*
X227500D02*
X230500Y174000D01*
X232500D01*
X229500Y181500D02*
X231500Y179500D01*
X230500Y177000D02*
X233500D01*
X258709Y136500D02*
X259000Y136791D01*
X245500Y136500D02*
X258709D01*
X245500D02*
Y151500D01*
X258402Y180500D02*
X259000Y179902D01*
X245000Y180500D02*
X258402D01*
X243050Y153950D02*
Y195550D01*
Y153950D02*
X245500Y151500D01*
X243050Y195550D02*
X245709Y198209D01*
X226500Y175500D02*
X230215Y171785D01*
X234387D01*
X232669Y181331D02*
Y185768D01*
Y181331D02*
X236337Y177663D01*
Y169837D02*
Y177663D01*
X234000Y167500D02*
X236337Y169837D01*
X234000Y153500D02*
Y167500D01*
X233000Y152500D02*
X234000Y153500D01*
X186500Y142500D02*
X193000D01*
X186000Y146000D02*
Y152000D01*
X188000Y154000D01*
X129743Y150531D02*
X131968D01*
X133000Y149500D01*
X200466Y181534D02*
X201000Y181000D01*
X245598Y155098D02*
X259000D01*
X245709Y198209D02*
X259000D01*
D17*
X121205Y159705D02*
Y162205D01*
Y164705D01*
X133311Y159189D02*
Y161689D01*
Y164311D01*
X124624Y164705D02*
X125018Y164311D01*
X129743D01*
X124624Y140295D02*
X125018Y140689D01*
X129743D01*
X133189D01*
X121205Y140295D02*
X124624D01*
X129743Y164311D02*
X133311D01*
X121205Y164705D02*
X124624D01*
X127933Y158405D02*
X129743D01*
X126949Y157421D02*
X127933Y158405D01*
X124624Y157421D02*
X126949D01*
X127647Y146595D02*
X129743D01*
X126663Y147579D02*
X127647Y146595D01*
X124624Y147579D02*
X126663D01*
X129743Y146595D02*
X134095D01*
X135000Y147500D01*
X122724Y147579D02*
X124624D01*
X121145Y146000D02*
X122724Y147579D01*
X117500Y146000D02*
X121145D01*
X119921Y157421D02*
X124624D01*
X119500Y157000D02*
X119921Y157421D01*
X118500Y157000D02*
X119500D01*
D18*
X148500Y148500D02*
Y164500D01*
X146000Y146000D02*
X148500Y148500D01*
D19*
X205000Y226000D02*
D03*
Y234000D02*
D03*
X235000Y230000D02*
D03*
D20*
X115000Y115000D02*
D03*
X257500Y222500D02*
D03*
Y115000D02*
D03*
X115000Y222500D02*
D03*
D21*
X127500Y197500D02*
D03*
Y187500D02*
D03*
X117500Y197500D02*
D03*
Y187500D02*
D03*
X107500Y197500D02*
D03*
X165000Y232500D02*
D03*
X145000D02*
D03*
X175000D02*
D03*
X155000D02*
D03*
X185000D02*
D03*
D22*
X107500Y187500D02*
D03*
X135000Y232500D02*
D03*
D23*
X107026Y135492D02*
D03*
Y169508D02*
D03*
D24*
X128128Y135492D02*
D03*
Y169508D02*
D03*
D25*
X107913Y107913D02*
D03*
X122087D02*
D03*
Y122087D02*
D03*
X107913D02*
D03*
X115000Y125236D02*
D03*
Y104764D02*
D03*
X125236Y115000D02*
D03*
X104764D02*
D03*
X250413Y215413D02*
D03*
X264587D02*
D03*
Y229587D02*
D03*
X250413D02*
D03*
X257500Y232736D02*
D03*
Y212264D02*
D03*
X267736Y222500D02*
D03*
X247264D02*
D03*
X250413Y107913D02*
D03*
X264587D02*
D03*
Y122087D02*
D03*
X250413D02*
D03*
X257500Y125236D02*
D03*
Y104764D02*
D03*
X267736Y115000D02*
D03*
X247264D02*
D03*
X107913Y215413D02*
D03*
X122087D02*
D03*
Y229587D02*
D03*
X107913D02*
D03*
X115000Y232736D02*
D03*
Y212264D02*
D03*
X125236Y222500D02*
D03*
X104764D02*
D03*
D26*
X203000Y212000D02*
D03*
X200500Y198000D02*
D03*
X202500Y195500D02*
D03*
X205192Y197793D02*
D03*
X207500Y196000D02*
D03*
X195000Y233500D02*
D03*
Y230500D02*
D03*
X198000D02*
D03*
Y233500D02*
D03*
X228000Y214000D02*
D03*
X222500D02*
D03*
X220000Y224000D02*
D03*
X230000D02*
D03*
X236350Y201850D02*
D03*
X225626Y160126D02*
D03*
X222500Y169500D02*
D03*
X213500Y196913D02*
D03*
X117500Y142500D02*
D03*
X115000D02*
D03*
X112500D02*
D03*
X110000D02*
D03*
X107500D02*
D03*
X105000D02*
D03*
X195000Y213500D02*
D03*
X198000Y217000D02*
D03*
X161000Y112500D02*
D03*
X169291Y112709D02*
D03*
X186500Y142500D02*
D03*
X245598Y155098D02*
D03*
X191000Y183500D02*
D03*
X185500Y185000D02*
D03*
Y181500D02*
D03*
X188000Y159000D02*
D03*
X160000Y179500D02*
D03*
X225626Y207874D02*
D03*
X201516Y181516D02*
D03*
X201500Y185500D02*
D03*
X198984Y183484D02*
D03*
X133500Y153000D02*
D03*
X121016Y153484D02*
D03*
X171350Y145650D02*
D03*
X161500Y154000D02*
D03*
X157500D02*
D03*
X169004Y161496D02*
D03*
X121047Y149547D02*
D03*
X133500Y156000D02*
D03*
X175000Y157000D02*
D03*
X170728Y168228D02*
D03*
X121205Y159705D02*
D03*
Y162205D02*
D03*
X133311Y159189D02*
D03*
Y161689D02*
D03*
X133189Y140689D02*
D03*
X121205Y140295D02*
D03*
X139000Y155000D02*
D03*
X138701Y169201D02*
D03*
Y161201D02*
D03*
X133311Y164311D02*
D03*
X121205Y164705D02*
D03*
X147244Y118256D02*
D03*
X166535Y118035D02*
D03*
X172047Y118047D02*
D03*
X174803Y116197D02*
D03*
X177559Y118059D02*
D03*
X188583Y118083D02*
D03*
X202362Y118138D02*
D03*
X205118Y116118D02*
D03*
X207874Y118126D02*
D03*
X210630Y116130D02*
D03*
X213386Y118114D02*
D03*
X224409Y116091D02*
D03*
X227165Y118165D02*
D03*
X202500Y145000D02*
D03*
X207500D02*
D03*
X210626Y207374D02*
D03*
X236150Y166650D02*
D03*
X232500Y174000D02*
D03*
X231500Y179500D02*
D03*
X233500Y177000D02*
D03*
X234387Y171785D02*
D03*
X245500Y136500D02*
D03*
X245000Y180500D02*
D03*
X216000Y209000D02*
D03*
X230500Y149000D02*
D03*
X209500D02*
D03*
X215000Y154000D02*
D03*
X233000Y152500D02*
D03*
X193000Y142500D02*
D03*
X186000Y146000D02*
D03*
X239130Y148630D02*
D03*
X133000Y149500D02*
D03*
X192500Y217000D02*
D03*
X188000Y137500D02*
D03*
X178000Y134500D02*
D03*
X165500Y133500D02*
D03*
X146000Y133000D02*
D03*
X195000Y138500D02*
D03*
X152500Y189000D02*
D03*
X133000Y183500D02*
D03*
X144000Y179000D02*
D03*
X142000Y195000D02*
D03*
X141000Y189000D02*
D03*
X167500Y185000D02*
D03*
X190206Y209706D02*
D03*
X133000Y213500D02*
D03*
X141000Y224500D02*
D03*
X232500Y190500D02*
D03*
X148500Y164500D02*
D03*
X146000Y146000D02*
D03*
M02*
