G04 Layer_Color=32896*
%FSLAX25Y25*%
%MOIN*%
G70*
G01*
G75*
%ADD16C,0.00500*%
%ADD17C,0.01000*%
%ADD47C,0.00787*%
%ADD48C,0.00800*%
%ADD78C,0.00984*%
D16*
X122126Y209862D02*
Y211437D01*
X121339Y210650D02*
X122913D01*
X137087D02*
X138661D01*
X162362Y217874D02*
X163937D01*
X163150Y217087D02*
Y218661D01*
Y201339D02*
Y202913D01*
X133563Y186221D02*
X135138D01*
X134350Y185433D02*
Y187008D01*
Y201181D02*
Y202756D01*
D17*
X156102Y188031D02*
Y191969D01*
X143898Y188031D02*
Y191969D01*
Y188031D02*
X156102D01*
X143898Y191969D02*
X156102D01*
X128425Y209469D02*
X131968Y207500D01*
X128425Y205532D02*
X131968Y207500D01*
X128425Y205532D02*
Y209469D01*
X124291Y210846D02*
X135709D01*
X124291Y204153D02*
X135709D01*
X131968Y205532D02*
Y209469D01*
X227189Y172067D02*
X228559D01*
Y173437D01*
X207693Y172067D02*
X209063D01*
X207693D02*
Y173437D01*
Y191563D02*
Y192933D01*
X209063D01*
X227189D02*
X228559D01*
Y191563D02*
Y192933D01*
X151988Y168091D02*
X153358D01*
X151988Y167705D02*
Y168091D01*
Y157067D02*
Y157453D01*
Y157067D02*
X153358D01*
X161642D02*
X163012D01*
Y157453D01*
X161642Y168091D02*
X163012D01*
Y167705D02*
Y168091D01*
X130000Y237500D02*
X190000D01*
Y227500D02*
Y237500D01*
X130000Y227500D02*
X190000D01*
X130000D02*
Y237500D01*
X160000Y208032D02*
X161969Y211575D01*
X158031D02*
X160000Y208032D01*
X158031Y211575D02*
X161969D01*
X163347Y204291D02*
Y215709D01*
X156653Y204291D02*
Y215709D01*
X158031Y208032D02*
X161969D01*
X135531Y192520D02*
X137500Y196063D01*
X139469Y192520D01*
X135531D02*
X139469D01*
X134153Y188386D02*
Y199803D01*
X140847Y188386D02*
Y199803D01*
X135531Y196063D02*
X139469D01*
D47*
X177000Y140500D02*
Y142500D01*
X170335Y190197D02*
X174665D01*
X170335Y199803D02*
X174665D01*
X218051Y140941D02*
Y146059D01*
X211949Y140941D02*
Y146059D01*
X158976Y142106D02*
Y142894D01*
X156024Y142106D02*
Y142894D01*
X235000Y150500D02*
X237000D01*
X165000Y178500D02*
Y180500D01*
X172500Y178500D02*
Y180500D01*
X187000Y175000D02*
Y177000D01*
Y171500D02*
Y173500D01*
Y168000D02*
Y170000D01*
X206500Y140000D02*
X208500D01*
X201500D02*
X203500D01*
X177000Y144000D02*
Y146000D01*
X181130Y136500D02*
Y138500D01*
X178051Y207441D02*
Y212559D01*
X171949Y207441D02*
Y212559D01*
X188051Y207441D02*
Y212559D01*
X181949Y207441D02*
Y212559D01*
X166024Y207106D02*
Y207894D01*
X168976Y207106D02*
Y207894D01*
X151024Y207106D02*
Y207894D01*
X153976Y207106D02*
Y207894D01*
X148051Y207441D02*
Y212559D01*
X141949Y207441D02*
Y212559D01*
X158524Y187106D02*
Y187894D01*
X161476Y187106D02*
Y187894D01*
X141457Y163524D02*
X142244D01*
X141457Y166476D02*
X142244D01*
X171949Y164941D02*
Y170059D01*
X178051Y164941D02*
Y170059D01*
X229150Y204606D02*
Y205394D01*
X232102Y204606D02*
Y205394D01*
X231976Y163106D02*
Y163894D01*
X229024Y163106D02*
Y163894D01*
X219150Y204606D02*
Y205394D01*
X222102Y204606D02*
Y205394D01*
X228051Y140941D02*
Y146059D01*
X221949Y140941D02*
Y146059D01*
X166024Y142106D02*
Y142894D01*
X168976Y142106D02*
Y142894D01*
X161024Y142106D02*
Y142894D01*
X163976Y142106D02*
Y142894D01*
X151976Y142106D02*
Y142894D01*
X149024Y142106D02*
Y142894D01*
D48*
X128500Y155000D02*
X136000D01*
X125000Y151500D02*
X128500Y155000D01*
X132500Y165000D02*
X135000Y167500D01*
X125000Y165000D02*
X132500D01*
X119000Y201500D02*
Y206500D01*
X116500Y204000D02*
X121500D01*
X239834Y223999D02*
X241167D01*
X240501D01*
Y220666D01*
X241167Y220000D01*
X241834D01*
X242500Y220666D01*
X238501Y223332D02*
X237835Y223999D01*
X236502D01*
X235836Y223332D01*
Y222666D01*
X236502Y221999D01*
X237168D01*
X236502D01*
X235836Y221333D01*
Y220666D01*
X236502Y220000D01*
X237835D01*
X238501Y220666D01*
X155000Y181499D02*
Y178166D01*
X154333Y177500D01*
X153001D01*
X152334Y178166D01*
Y181499D01*
X151001Y177500D02*
X149668D01*
X150335D01*
Y181499D01*
X151001Y180832D01*
X135000Y216499D02*
Y212500D01*
X133001D01*
X132334Y213166D01*
Y215832D01*
X133001Y216499D01*
X135000D01*
X131001Y212500D02*
X129668D01*
X130335D01*
Y216499D01*
X131001Y215832D01*
X192500Y140000D02*
Y143999D01*
X190501D01*
X189834Y143332D01*
Y141999D01*
X190501Y141333D01*
X192500D01*
X191167D02*
X189834Y140000D01*
X188501Y143332D02*
X187835Y143999D01*
X186502D01*
X185836Y143332D01*
Y142666D01*
X186502Y141999D01*
X185836Y141333D01*
Y140666D01*
X186502Y140000D01*
X187835D01*
X188501Y140666D01*
Y141333D01*
X187835Y141999D01*
X188501Y142666D01*
Y143332D01*
X187835Y141999D02*
X186502D01*
X240000Y191499D02*
Y188166D01*
X239334Y187500D01*
X238001D01*
X237334Y188166D01*
Y191499D01*
X233335Y187500D02*
X236001D01*
X233335Y190166D01*
Y190832D01*
X234002Y191499D01*
X235335D01*
X236001Y190832D01*
X162500Y173999D02*
Y170667D01*
X161834Y170000D01*
X160501D01*
X159834Y170667D01*
Y173999D01*
X158501Y173332D02*
X157835Y173999D01*
X156502D01*
X155835Y173332D01*
Y172666D01*
X156502Y171999D01*
X157168D01*
X156502D01*
X155835Y171333D01*
Y170667D01*
X156502Y170000D01*
X157835D01*
X158501Y170667D01*
X187500Y198999D02*
Y195000D01*
X184834D01*
X183501D02*
X182168D01*
X182835D01*
Y198999D01*
X183501Y198332D01*
X142500Y131499D02*
Y128166D01*
X141833Y127500D01*
X140501D01*
X139834Y128166D01*
Y131499D01*
X136502Y127500D02*
Y131499D01*
X138501Y129499D01*
X135836D01*
X134834Y223999D02*
X136167D01*
X135501D01*
Y220666D01*
X136167Y220000D01*
X136834D01*
X137500Y220666D01*
X131502Y220000D02*
Y223999D01*
X133501Y221999D01*
X130835D01*
X233332Y135166D02*
X233999Y134499D01*
Y133167D01*
X233332Y132500D01*
X230666D01*
X230000Y133167D01*
Y134499D01*
X230666Y135166D01*
X230000Y139164D02*
Y136499D01*
X232666Y139164D01*
X233332D01*
X233999Y138498D01*
Y137165D01*
X233332Y136499D01*
X230000Y142497D02*
X233999D01*
X231999Y140497D01*
Y143163D01*
X135832Y142666D02*
X136499Y141999D01*
Y140666D01*
X135832Y140000D01*
X133167D01*
X132500Y140666D01*
Y141999D01*
X133167Y142666D01*
X132500Y146665D02*
Y143999D01*
X135166Y146665D01*
X135832D01*
X136499Y145998D01*
Y144665D01*
X135832Y143999D01*
Y147997D02*
X136499Y148664D01*
Y149997D01*
X135832Y150663D01*
X133167D01*
X132500Y149997D01*
Y148664D01*
X133167Y147997D01*
X135832D01*
X215832Y212666D02*
X216499Y211999D01*
Y210666D01*
X215832Y210000D01*
X213166D01*
X212500Y210666D01*
Y211999D01*
X213166Y212666D01*
X216499Y213999D02*
Y216665D01*
X215832D01*
X213166Y213999D01*
X212500D01*
X240000Y147500D02*
X243999D01*
Y149499D01*
X243332Y150166D01*
X241999D01*
X241333Y149499D01*
Y147500D01*
Y148833D02*
X240000Y150166D01*
Y153498D02*
X243999D01*
X241999Y151499D01*
Y154165D01*
X170000Y182500D02*
Y186499D01*
X168001D01*
X167334Y185832D01*
Y184499D01*
X168001Y183833D01*
X170000D01*
X168667D02*
X167334Y182500D01*
X163336D02*
X166001D01*
X163336Y185166D01*
Y185832D01*
X164002Y186499D01*
X165335D01*
X166001Y185832D01*
X177500Y182500D02*
Y186499D01*
X175501D01*
X174834Y185832D01*
Y184499D01*
X175501Y183833D01*
X177500D01*
X176167D02*
X174834Y182500D01*
X173501D02*
X172168D01*
X172835D01*
Y186499D01*
X173501Y185832D01*
X200000Y177500D02*
Y181499D01*
X198001D01*
X197334Y180832D01*
Y179499D01*
X198001Y178833D01*
X200000D01*
X198667D02*
X197334Y177500D01*
X196001Y181499D02*
X193335D01*
Y180832D01*
X196001Y178166D01*
Y177500D01*
X200000Y172500D02*
Y176499D01*
X198001D01*
X197334Y175832D01*
Y174499D01*
X198001Y173833D01*
X200000D01*
X198667D02*
X197334Y172500D01*
X193335Y176499D02*
X194668Y175832D01*
X196001Y174499D01*
Y173167D01*
X195335Y172500D01*
X194002D01*
X193335Y173167D01*
Y173833D01*
X194002Y174499D01*
X196001D01*
X200000Y167500D02*
Y171499D01*
X198001D01*
X197334Y170832D01*
Y169499D01*
X198001Y168833D01*
X200000D01*
X198667D02*
X197334Y167500D01*
X193335Y171499D02*
X196001D01*
Y169499D01*
X194668Y170166D01*
X194002D01*
X193335Y169499D01*
Y168166D01*
X194002Y167500D01*
X195335D01*
X196001Y168166D01*
X204000Y147000D02*
X207999D01*
Y148999D01*
X207332Y149666D01*
X205999D01*
X205333Y148999D01*
Y147000D01*
Y148333D02*
X204000Y149666D01*
Y150999D02*
Y152332D01*
Y151665D01*
X207999D01*
X207332Y150999D01*
X204000Y156997D02*
Y154331D01*
X206666Y156997D01*
X207332D01*
X207999Y156330D01*
Y154997D01*
X207332Y154331D01*
X198000Y147000D02*
X201999D01*
Y148999D01*
X201332Y149666D01*
X199999D01*
X199333Y148999D01*
Y147000D01*
Y148333D02*
X198000Y149666D01*
Y150999D02*
Y152332D01*
Y151665D01*
X201999D01*
X201332Y150999D01*
X198000Y154331D02*
Y155664D01*
Y154997D01*
X201999D01*
X201332Y154331D01*
X192500Y145000D02*
Y148999D01*
X190501D01*
X189834Y148332D01*
Y146999D01*
X190501Y146333D01*
X192500D01*
X191167D02*
X189834Y145000D01*
X188501D02*
X187168D01*
X187835D01*
Y148999D01*
X188501Y148332D01*
X185169D02*
X184503Y148999D01*
X183170D01*
X182503Y148332D01*
Y145667D01*
X183170Y145000D01*
X184503D01*
X185169Y145667D01*
Y148332D01*
X195000Y135000D02*
Y138999D01*
X193001D01*
X192334Y138332D01*
Y136999D01*
X193001Y136333D01*
X195000D01*
X193667D02*
X192334Y135000D01*
X191001Y135667D02*
X190335Y135000D01*
X189002D01*
X188336Y135667D01*
Y138332D01*
X189002Y138999D01*
X190335D01*
X191001Y138332D01*
Y137666D01*
X190335Y136999D01*
X188336D01*
X162500Y223999D02*
Y220000D01*
X160501D01*
X159834Y220666D01*
Y223332D01*
X160501Y223999D01*
X162500D01*
X158501Y223332D02*
X157835Y223999D01*
X156502D01*
X155835Y223332D01*
Y222666D01*
X156502Y221999D01*
X157168D01*
X156502D01*
X155835Y221333D01*
Y220666D01*
X156502Y220000D01*
X157835D01*
X158501Y220666D01*
X140000Y183999D02*
Y180000D01*
X138001D01*
X137334Y180666D01*
Y183332D01*
X138001Y183999D01*
X140000D01*
X133335Y180000D02*
X136001D01*
X133335Y182666D01*
Y183332D01*
X134002Y183999D01*
X135335D01*
X136001Y183332D01*
X205832Y200166D02*
X206499Y199499D01*
Y198167D01*
X205832Y197500D01*
X203167D01*
X202500Y198167D01*
Y199499D01*
X203167Y200166D01*
X202500Y201499D02*
Y202832D01*
Y202165D01*
X206499D01*
X205832Y201499D01*
Y204831D02*
X206499Y205497D01*
Y206830D01*
X205832Y207497D01*
X205166D01*
X204499Y206830D01*
Y206164D01*
Y206830D01*
X203833Y207497D01*
X203167D01*
X202500Y206830D01*
Y205497D01*
X203167Y204831D01*
X174834Y223332D02*
X175501Y223999D01*
X176833D01*
X177500Y223332D01*
Y220666D01*
X176833Y220000D01*
X175501D01*
X174834Y220666D01*
X170835Y223999D02*
X172168Y223332D01*
X173501Y221999D01*
Y220666D01*
X172835Y220000D01*
X171502D01*
X170835Y220666D01*
Y221333D01*
X171502Y221999D01*
X173501D01*
X184834Y223332D02*
X185501Y223999D01*
X186834D01*
X187500Y223332D01*
Y220666D01*
X186834Y220000D01*
X185501D01*
X184834Y220666D01*
X180835Y223999D02*
X183501D01*
Y221999D01*
X182168Y222666D01*
X181502D01*
X180835Y221999D01*
Y220666D01*
X181502Y220000D01*
X182835D01*
X183501Y220666D01*
X168332Y217666D02*
X168999Y216999D01*
Y215666D01*
X168332Y215000D01*
X165666D01*
X165000Y215666D01*
Y216999D01*
X165666Y217666D01*
X165000Y220998D02*
X168999D01*
X166999Y218999D01*
Y221665D01*
X153332Y217666D02*
X153999Y216999D01*
Y215666D01*
X153332Y215000D01*
X150666D01*
X150000Y215666D01*
Y216999D01*
X150666Y217666D01*
X153332Y218999D02*
X153999Y219665D01*
Y220998D01*
X153332Y221665D01*
X152666D01*
X151999Y220998D01*
Y220332D01*
Y220998D01*
X151333Y221665D01*
X150666D01*
X150000Y220998D01*
Y219665D01*
X150666Y218999D01*
X144834Y223332D02*
X145501Y223999D01*
X146834D01*
X147500Y223332D01*
Y220666D01*
X146834Y220000D01*
X145501D01*
X144834Y220666D01*
X140835Y220000D02*
X143501D01*
X140835Y222666D01*
Y223332D01*
X141502Y223999D01*
X142835D01*
X143501Y223332D01*
X159834Y198332D02*
X160501Y198999D01*
X161834D01*
X162500Y198332D01*
Y195667D01*
X161834Y195000D01*
X160501D01*
X159834Y195667D01*
X158501Y195000D02*
X157168D01*
X157835D01*
Y198999D01*
X158501Y198332D01*
X119834Y165832D02*
X120501Y166499D01*
X121834D01*
X122500Y165832D01*
Y163166D01*
X121834Y162500D01*
X120501D01*
X119834Y163166D01*
X118501Y162500D02*
X117168D01*
X117835D01*
Y166499D01*
X118501Y165832D01*
X115169Y163166D02*
X114503Y162500D01*
X113170D01*
X112503Y163166D01*
Y165832D01*
X113170Y166499D01*
X114503D01*
X115169Y165832D01*
Y165166D01*
X114503Y164499D01*
X112503D01*
X119834Y150832D02*
X120501Y151499D01*
X121834D01*
X122500Y150832D01*
Y148167D01*
X121834Y147500D01*
X120501D01*
X119834Y148167D01*
X118501Y147500D02*
X117168D01*
X117835D01*
Y151499D01*
X118501Y150832D01*
X115169D02*
X114503Y151499D01*
X113170D01*
X112503Y150832D01*
Y150166D01*
X113170Y149499D01*
X112503Y148833D01*
Y148167D01*
X113170Y147500D01*
X114503D01*
X115169Y148167D01*
Y148833D01*
X114503Y149499D01*
X115169Y150166D01*
Y150832D01*
X114503Y149499D02*
X113170D01*
X119834Y155832D02*
X120501Y156499D01*
X121834D01*
X122500Y155832D01*
Y153166D01*
X121834Y152500D01*
X120501D01*
X119834Y153166D01*
X118501Y152500D02*
X117168D01*
X117835D01*
Y156499D01*
X118501Y155832D01*
X115169Y156499D02*
X112503D01*
Y155832D01*
X115169Y153166D01*
Y152500D01*
X119834Y160832D02*
X120501Y161499D01*
X121834D01*
X122500Y160832D01*
Y158167D01*
X121834Y157500D01*
X120501D01*
X119834Y158167D01*
X118501Y157500D02*
X117168D01*
X117835D01*
Y161499D01*
X118501Y160832D01*
X112503Y161499D02*
X113836Y160832D01*
X115169Y159499D01*
Y158167D01*
X114503Y157500D01*
X113170D01*
X112503Y158167D01*
Y158833D01*
X113170Y159499D01*
X115169D01*
X168332Y155166D02*
X168999Y154499D01*
Y153166D01*
X168332Y152500D01*
X165666D01*
X165000Y153166D01*
Y154499D01*
X165666Y155166D01*
X165000Y156499D02*
Y157832D01*
Y157165D01*
X168999D01*
X168332Y156499D01*
X168999Y162497D02*
Y159831D01*
X166999D01*
X167666Y161164D01*
Y161830D01*
X166999Y162497D01*
X165666D01*
X165000Y161830D01*
Y160497D01*
X165666Y159831D01*
X183332Y157666D02*
X183999Y156999D01*
Y155666D01*
X183332Y155000D01*
X180666D01*
X180000Y155666D01*
Y156999D01*
X180666Y157666D01*
X180000Y158999D02*
Y160332D01*
Y159665D01*
X183999D01*
X183332Y158999D01*
X180000Y164330D02*
X183999D01*
X181999Y162331D01*
Y164997D01*
X238332Y202666D02*
X238999Y201999D01*
Y200666D01*
X238332Y200000D01*
X235666D01*
X235000Y200666D01*
Y201999D01*
X235666Y202666D01*
X235000Y203999D02*
Y205332D01*
Y204665D01*
X238999D01*
X238332Y203999D01*
X235000Y209997D02*
Y207331D01*
X237666Y209997D01*
X238332D01*
X238999Y209330D01*
Y207997D01*
X238332Y207331D01*
Y162666D02*
X238999Y161999D01*
Y160667D01*
X238332Y160000D01*
X235666D01*
X235000Y160667D01*
Y161999D01*
X235666Y162666D01*
X235000Y163999D02*
Y165332D01*
Y164665D01*
X238999D01*
X238332Y163999D01*
X235000Y167331D02*
Y168664D01*
Y167997D01*
X238999D01*
X238332Y167331D01*
X228332Y215166D02*
X228999Y214499D01*
Y213166D01*
X228332Y212500D01*
X225666D01*
X225000Y213166D01*
Y214499D01*
X225666Y215166D01*
X225000Y216499D02*
Y217832D01*
Y217165D01*
X228999D01*
X228332Y216499D01*
Y219831D02*
X228999Y220497D01*
Y221830D01*
X228332Y222497D01*
X225666D01*
X225000Y221830D01*
Y220497D01*
X225666Y219831D01*
X228332D01*
X220832Y165166D02*
X221499Y164499D01*
Y163166D01*
X220832Y162500D01*
X218166D01*
X217500Y163166D01*
Y164499D01*
X218166Y165166D01*
Y166499D02*
X217500Y167165D01*
Y168498D01*
X218166Y169165D01*
X220832D01*
X221499Y168498D01*
Y167165D01*
X220832Y166499D01*
X220166D01*
X219499Y167165D01*
Y169165D01*
X222332Y215166D02*
X222999Y214499D01*
Y213166D01*
X222332Y212500D01*
X219666D01*
X219000Y213166D01*
Y214499D01*
X219666Y215166D01*
X222332Y216499D02*
X222999Y217165D01*
Y218498D01*
X222332Y219164D01*
X221666D01*
X220999Y218498D01*
X220333Y219164D01*
X219666D01*
X219000Y218498D01*
Y217165D01*
X219666Y216499D01*
X220333D01*
X220999Y217165D01*
X221666Y216499D01*
X222332D01*
X220999Y217165D02*
Y218498D01*
X238332Y135166D02*
X238999Y134499D01*
Y133167D01*
X238332Y132500D01*
X235666D01*
X235000Y133167D01*
Y134499D01*
X235666Y135166D01*
X235000Y139164D02*
Y136499D01*
X237666Y139164D01*
X238332D01*
X238999Y138498D01*
Y137165D01*
X238332Y136499D01*
X238999Y143163D02*
Y140497D01*
X236999D01*
X237666Y141830D01*
Y142497D01*
X236999Y143163D01*
X235666D01*
X235000Y142497D01*
Y141164D01*
X235666Y140497D01*
X145832Y142666D02*
X146499Y141999D01*
Y140666D01*
X145832Y140000D01*
X143166D01*
X142500Y140666D01*
Y141999D01*
X143166Y142666D01*
X142500Y146665D02*
Y143999D01*
X145166Y146665D01*
X145832D01*
X146499Y145998D01*
Y144665D01*
X145832Y143999D01*
Y147997D02*
X146499Y148664D01*
Y149997D01*
X145832Y150663D01*
X145166D01*
X144499Y149997D01*
Y149330D01*
Y149997D01*
X143833Y150663D01*
X143166D01*
X142500Y149997D01*
Y148664D01*
X143166Y147997D01*
X140832Y142666D02*
X141499Y141999D01*
Y140666D01*
X140832Y140000D01*
X138166D01*
X137500Y140666D01*
Y141999D01*
X138166Y142666D01*
X137500Y146665D02*
Y143999D01*
X140166Y146665D01*
X140832D01*
X141499Y145998D01*
Y144665D01*
X140832Y143999D01*
X137500Y150663D02*
Y147997D01*
X140166Y150663D01*
X140832D01*
X141499Y149997D01*
Y148664D01*
X140832Y147997D01*
X130832Y142666D02*
X131499Y141999D01*
Y140666D01*
X130832Y140000D01*
X128166D01*
X127500Y140666D01*
Y141999D01*
X128166Y142666D01*
X127500Y146665D02*
Y143999D01*
X130166Y146665D01*
X130832D01*
X131499Y145998D01*
Y144665D01*
X130832Y143999D01*
X127500Y147997D02*
Y149330D01*
Y148664D01*
X131499D01*
X130832Y147997D01*
D78*
X158071Y184390D02*
G03*
X158071Y184390I-984J0D01*
G01*
X232102Y192342D02*
G03*
X232102Y192342I-984J0D01*
G01*
X153563Y170650D02*
G03*
X153563Y170650I-984J0D01*
G01*
M02*
