G04 Layer_Color=16711935*
%FSLAX25Y25*%
%MOIN*%
G70*
G01*
G75*
%ADD52R,0.02559X0.02362*%
%ADD54C,0.27953*%
%ADD55O,0.08661X0.04724*%
%ADD56O,0.10630X0.04724*%
%ADD57R,0.07394X0.07394*%
%ADD58C,0.07394*%
%ADD59C,0.04294*%
%ADD60R,0.04134X0.03740*%
%ADD61R,0.07283X0.04331*%
%ADD62R,0.02913X0.02913*%
%ADD63R,0.02913X0.02913*%
%ADD64R,0.03740X0.04134*%
%ADD65R,0.03740X0.03740*%
%ADD66R,0.03740X0.03740*%
%ADD67C,0.03494*%
%ADD68R,0.04724X0.10787*%
%ADD69R,0.02362X0.02559*%
%ADD70R,0.02756X0.03937*%
%ADD71R,0.14567X0.14567*%
%ADD72O,0.01378X0.03740*%
%ADD73O,0.03740X0.01378*%
%ADD74R,0.06102X0.06102*%
%ADD75O,0.02953X0.01378*%
%ADD76O,0.01378X0.02953*%
%ADD77R,0.10827X0.09449*%
%ADD78R,0.01575X0.05905*%
%ADD79C,0.04331*%
D52*
X236000Y160870D02*
D03*
Y157130D02*
D03*
X199500Y150370D02*
D03*
Y146630D02*
D03*
X203500Y150370D02*
D03*
Y146630D02*
D03*
D54*
X115000Y231000D02*
D03*
X257500Y115000D02*
D03*
Y231000D02*
D03*
X115000Y115000D02*
D03*
D55*
X128128Y178008D02*
D03*
Y143992D02*
D03*
D56*
X107026Y178008D02*
D03*
Y143992D02*
D03*
D57*
X107500Y196000D02*
D03*
X135000Y241000D02*
D03*
D58*
X107500Y206000D02*
D03*
X117500Y196000D02*
D03*
Y206000D02*
D03*
X127500Y196000D02*
D03*
Y206000D02*
D03*
X185000Y241000D02*
D03*
X175000D02*
D03*
X165000D02*
D03*
X155000D02*
D03*
X145000D02*
D03*
D59*
X235000Y238500D02*
D03*
X205000Y242500D02*
D03*
Y234500D02*
D03*
D60*
X160000Y199150D02*
D03*
Y192850D02*
D03*
X152500Y219150D02*
D03*
Y212850D02*
D03*
X167500Y219150D02*
D03*
Y212850D02*
D03*
X220626Y216650D02*
D03*
Y210350D02*
D03*
X230500Y168850D02*
D03*
Y175150D02*
D03*
X230626Y216650D02*
D03*
Y210350D02*
D03*
X161500Y147850D02*
D03*
Y154150D02*
D03*
X155000Y147850D02*
D03*
Y154150D02*
D03*
X167500Y154150D02*
D03*
Y147850D02*
D03*
X173500Y154150D02*
D03*
Y147850D02*
D03*
D61*
X145000Y212496D02*
D03*
Y224504D02*
D03*
X185000Y212496D02*
D03*
Y224504D02*
D03*
X175000Y212496D02*
D03*
Y224504D02*
D03*
X139500Y169996D02*
D03*
Y182004D02*
D03*
X211500Y145996D02*
D03*
Y158004D02*
D03*
X221500Y145996D02*
D03*
Y158004D02*
D03*
D62*
X215626Y212772D02*
D03*
Y209228D02*
D03*
X225626Y171728D02*
D03*
Y175272D02*
D03*
Y212772D02*
D03*
Y209228D02*
D03*
X210626Y212772D02*
D03*
Y209228D02*
D03*
X146500Y174272D02*
D03*
Y170728D02*
D03*
Y178228D02*
D03*
Y181772D02*
D03*
D63*
X173772Y176000D02*
D03*
X170228D02*
D03*
X143228Y163500D02*
D03*
X146772D02*
D03*
D64*
X176150Y181500D02*
D03*
X169850D02*
D03*
D65*
X136594Y216000D02*
D03*
X123406D02*
D03*
D66*
X137500Y209189D02*
D03*
Y196000D02*
D03*
X160000Y211906D02*
D03*
Y225095D02*
D03*
D67*
X230000Y241000D02*
D03*
X225000D02*
D03*
X220000D02*
D03*
X215000D02*
D03*
X210000D02*
D03*
Y236000D02*
D03*
X215000D02*
D03*
X220000D02*
D03*
X225000D02*
D03*
X230000D02*
D03*
D68*
X166673Y203500D02*
D03*
X178327D02*
D03*
D69*
X165760Y188000D02*
D03*
X169500D02*
D03*
X158260D02*
D03*
X162000D02*
D03*
X185130Y177500D02*
D03*
X188870D02*
D03*
X185130Y181000D02*
D03*
X188870D02*
D03*
X185130Y184500D02*
D03*
X188870D02*
D03*
X182000Y150000D02*
D03*
X178260D02*
D03*
X183000Y146000D02*
D03*
X179260D02*
D03*
X182000Y153500D02*
D03*
X178260D02*
D03*
D70*
X153740Y192890D02*
D03*
X150000D02*
D03*
X146260D02*
D03*
Y204110D02*
D03*
X150000D02*
D03*
X153740D02*
D03*
D71*
X218126Y191000D02*
D03*
D72*
X225016Y200449D02*
D03*
X223047D02*
D03*
X221079D02*
D03*
X219110D02*
D03*
X217142D02*
D03*
X215173D02*
D03*
X213205D02*
D03*
X211236D02*
D03*
Y181551D02*
D03*
X213205D02*
D03*
X215173D02*
D03*
X217142D02*
D03*
X219110D02*
D03*
X221079D02*
D03*
X223047D02*
D03*
X225016D02*
D03*
D73*
X208677Y197890D02*
D03*
Y195921D02*
D03*
Y193953D02*
D03*
Y191984D02*
D03*
Y190016D02*
D03*
Y188047D02*
D03*
Y186079D02*
D03*
Y184110D02*
D03*
X227575D02*
D03*
Y186079D02*
D03*
Y188047D02*
D03*
Y190016D02*
D03*
Y191984D02*
D03*
Y193953D02*
D03*
Y195921D02*
D03*
Y197890D02*
D03*
D74*
X157500Y171079D02*
D03*
D75*
X152579Y174031D02*
D03*
Y172063D02*
D03*
Y170095D02*
D03*
Y168126D02*
D03*
X162421D02*
D03*
Y170095D02*
D03*
Y172063D02*
D03*
Y174031D02*
D03*
D76*
X155532Y166157D02*
D03*
X157500D02*
D03*
X159468D02*
D03*
Y176000D02*
D03*
X157500D02*
D03*
X155532D02*
D03*
D77*
X150984Y133315D02*
D03*
X224016D02*
D03*
D78*
X162894Y138236D02*
D03*
X170768D02*
D03*
X178642D02*
D03*
X186516D02*
D03*
X188484D02*
D03*
X196358D02*
D03*
X204232D02*
D03*
X212106D02*
D03*
X158957D02*
D03*
X160925D02*
D03*
X164862D02*
D03*
X166831D02*
D03*
X168799D02*
D03*
X172736D02*
D03*
X174705D02*
D03*
X176673D02*
D03*
X180610D02*
D03*
X182579D02*
D03*
X184547D02*
D03*
X190453D02*
D03*
X192421D02*
D03*
X194390D02*
D03*
X198327D02*
D03*
X200295D02*
D03*
X202264D02*
D03*
X206201D02*
D03*
X208169D02*
D03*
X210138D02*
D03*
X214075D02*
D03*
X216043D02*
D03*
D79*
X180500Y164000D02*
D03*
X183000Y168000D02*
D03*
X178500Y174000D02*
D03*
M02*
