G04 Layer_Color=52428*
%FSLAX25Y25*%
%MOIN*%
G70*
G01*
G75*
%ADD16C,0.01000*%
%ADD17C,0.00500*%
%ADD48C,0.00800*%
%ADD49C,0.00787*%
%ADD80C,0.00984*%
%ADD81C,0.00600*%
D16*
X128425Y217969D02*
X131968Y216000D01*
X128425Y214032D02*
X131968Y216000D01*
X128425Y214032D02*
Y217969D01*
X124291Y219346D02*
X135709D01*
X124291Y212653D02*
X135709D01*
X131968Y214032D02*
Y217969D01*
X135531Y201020D02*
X137500Y204563D01*
X139469Y201020D01*
X135531D02*
X139469D01*
X134153Y196886D02*
Y208303D01*
X140847Y196886D02*
Y208303D01*
X135531Y204563D02*
X139469D01*
X160000Y216531D02*
X161969Y220075D01*
X158031D02*
X160000Y216531D01*
X158031Y220075D02*
X161969D01*
X163347Y212791D02*
Y224209D01*
X156653Y212791D02*
Y224209D01*
X158031Y216531D02*
X161969D01*
X130000Y236000D02*
Y246000D01*
Y236000D02*
X190000D01*
Y246000D01*
X130000D02*
X190000D01*
X156102Y196531D02*
Y200468D01*
X143898Y196531D02*
Y200468D01*
Y196531D02*
X156102D01*
X143898Y200468D02*
X156102D01*
X227189Y180567D02*
X228559D01*
Y181937D01*
X207693Y180567D02*
X209063D01*
X207693D02*
Y181937D01*
Y200063D02*
Y201433D01*
X209063D01*
X227189D02*
X228559D01*
Y200063D02*
Y201433D01*
X163012Y176205D02*
Y176591D01*
X161642D02*
X163012D01*
Y165567D02*
Y165953D01*
X161642Y165567D02*
X163012D01*
X151988D02*
X153358D01*
X151988D02*
Y165953D01*
Y176205D02*
Y176591D01*
X153358D01*
D17*
X122126Y218362D02*
Y219937D01*
X121339Y219150D02*
X122913D01*
X137087D02*
X138661D01*
X133563Y194720D02*
X135138D01*
X134350Y193933D02*
Y195508D01*
Y209681D02*
Y211256D01*
X162362Y226374D02*
X163937D01*
X163150Y225587D02*
Y227161D01*
Y209839D02*
Y211413D01*
D48*
X117000Y212500D02*
X121000D01*
X119000Y210500D02*
Y214500D01*
X125000Y173500D02*
X132500D01*
X135000Y176000D01*
X125000Y160000D02*
X128500Y163500D01*
X136000D01*
X240000Y199999D02*
Y196667D01*
X239334Y196000D01*
X238001D01*
X237334Y196667D01*
Y199999D01*
X233335Y196000D02*
X236001D01*
X233335Y198666D01*
Y199332D01*
X234002Y199999D01*
X235335D01*
X236001Y199332D01*
X134834Y232499D02*
X136167D01*
X135501D01*
Y229166D01*
X136167Y228500D01*
X136834D01*
X137500Y229166D01*
X131502Y228500D02*
Y232499D01*
X133501Y230499D01*
X130835D01*
X155000Y189999D02*
Y186667D01*
X154333Y186000D01*
X153001D01*
X152334Y186667D01*
Y189999D01*
X151001Y186000D02*
X149668D01*
X150335D01*
Y189999D01*
X151001Y189332D01*
X162500Y182499D02*
Y179166D01*
X161834Y178500D01*
X160501D01*
X159834Y179166D01*
Y182499D01*
X158501Y181832D02*
X157835Y182499D01*
X156502D01*
X155835Y181832D01*
Y181166D01*
X156502Y180499D01*
X157168D01*
X156502D01*
X155835Y179833D01*
Y179166D01*
X156502Y178500D01*
X157835D01*
X158501Y179166D01*
X239000Y155500D02*
X242999D01*
Y157499D01*
X242332Y158166D01*
X240999D01*
X240333Y157499D01*
Y155500D01*
Y156833D02*
X239000Y158166D01*
Y161498D02*
X242999D01*
X240999Y159499D01*
Y162164D01*
X164500Y190500D02*
X168499D01*
Y192499D01*
X167832Y193166D01*
X166499D01*
X165833Y192499D01*
Y190500D01*
Y191833D02*
X164500Y193166D01*
Y197164D02*
Y194499D01*
X167166Y197164D01*
X167832D01*
X168499Y196498D01*
Y195165D01*
X167832Y194499D01*
X170000Y190500D02*
X173999D01*
Y192499D01*
X173332Y193166D01*
X171999D01*
X171333Y192499D01*
Y190500D01*
Y191833D02*
X170000Y193166D01*
Y194499D02*
Y195832D01*
Y195165D01*
X173999D01*
X173332Y194499D01*
X200000Y186000D02*
Y189999D01*
X198001D01*
X197334Y189332D01*
Y187999D01*
X198001Y187333D01*
X200000D01*
X198667D02*
X197334Y186000D01*
X196001Y189999D02*
X193335D01*
Y189332D01*
X196001Y186667D01*
Y186000D01*
X200000Y181000D02*
Y184999D01*
X198001D01*
X197334Y184332D01*
Y182999D01*
X198001Y182333D01*
X200000D01*
X198667D02*
X197334Y181000D01*
X193335Y184999D02*
X194668Y184332D01*
X196001Y182999D01*
Y181667D01*
X195335Y181000D01*
X194002D01*
X193335Y181667D01*
Y182333D01*
X194002Y182999D01*
X196001D01*
X200000Y176000D02*
Y179999D01*
X198001D01*
X197334Y179332D01*
Y177999D01*
X198001Y177333D01*
X200000D01*
X198667D02*
X197334Y176000D01*
X193335Y179999D02*
X196001D01*
Y177999D01*
X194668Y178666D01*
X194002D01*
X193335Y177999D01*
Y176666D01*
X194002Y176000D01*
X195335D01*
X196001Y176666D01*
X200000Y155500D02*
X203999D01*
Y157499D01*
X203332Y158166D01*
X201999D01*
X201333Y157499D01*
Y155500D01*
Y156833D02*
X200000Y158166D01*
Y159499D02*
Y160832D01*
Y160165D01*
X203999D01*
X203332Y159499D01*
X200000Y165497D02*
Y162831D01*
X202666Y165497D01*
X203332D01*
X203999Y164830D01*
Y163497D01*
X203332Y162831D01*
X195000Y155500D02*
X198999D01*
Y157499D01*
X198332Y158166D01*
X196999D01*
X196333Y157499D01*
Y155500D01*
Y156833D02*
X195000Y158166D01*
Y159499D02*
Y160832D01*
Y160165D01*
X198999D01*
X198332Y159499D01*
X195000Y162831D02*
Y164164D01*
Y163497D01*
X198999D01*
X198332Y162831D01*
X193500Y159000D02*
Y162999D01*
X191501D01*
X190834Y162332D01*
Y160999D01*
X191501Y160333D01*
X193500D01*
X192167D02*
X190834Y159000D01*
X189501D02*
X188168D01*
X188835D01*
Y162999D01*
X189501Y162332D01*
X186169D02*
X185503Y162999D01*
X184170D01*
X183503Y162332D01*
Y159667D01*
X184170Y159000D01*
X185503D01*
X186169Y159667D01*
Y162332D01*
X193500Y148000D02*
Y151999D01*
X191501D01*
X190834Y151332D01*
Y149999D01*
X191501Y149333D01*
X193500D01*
X192167D02*
X190834Y148000D01*
X189501Y148667D02*
X188835Y148000D01*
X187502D01*
X186836Y148667D01*
Y151332D01*
X187502Y151999D01*
X188835D01*
X189501Y151332D01*
Y150666D01*
X188835Y149999D01*
X186836D01*
X193500Y153500D02*
Y157499D01*
X191501D01*
X190834Y156832D01*
Y155499D01*
X191501Y154833D01*
X193500D01*
X192167D02*
X190834Y153500D01*
X189501Y156832D02*
X188835Y157499D01*
X187502D01*
X186836Y156832D01*
Y156166D01*
X187502Y155499D01*
X186836Y154833D01*
Y154166D01*
X187502Y153500D01*
X188835D01*
X189501Y154166D01*
Y154833D01*
X188835Y155499D01*
X189501Y156166D01*
Y156832D01*
X188835Y155499D02*
X187502D01*
X187500Y207499D02*
Y203500D01*
X184834D01*
X183501D02*
X182168D01*
X182835D01*
Y207499D01*
X183501Y206832D01*
X239834Y232499D02*
X241167D01*
X240501D01*
Y229166D01*
X241167Y228500D01*
X241834D01*
X242500Y229166D01*
X238501Y231832D02*
X237835Y232499D01*
X236502D01*
X235836Y231832D01*
Y231166D01*
X236502Y230499D01*
X237168D01*
X236502D01*
X235836Y229833D01*
Y229166D01*
X236502Y228500D01*
X237835D01*
X238501Y229166D01*
X162500Y232499D02*
Y228500D01*
X160501D01*
X159834Y229166D01*
Y231832D01*
X160501Y232499D01*
X162500D01*
X158501Y231832D02*
X157835Y232499D01*
X156502D01*
X155835Y231832D01*
Y231166D01*
X156502Y230499D01*
X157168D01*
X156502D01*
X155835Y229833D01*
Y229166D01*
X156502Y228500D01*
X157835D01*
X158501Y229166D01*
X140500Y192999D02*
Y189000D01*
X138501D01*
X137834Y189666D01*
Y192332D01*
X138501Y192999D01*
X140500D01*
X133835Y189000D02*
X136501D01*
X133835Y191666D01*
Y192332D01*
X134502Y192999D01*
X135835D01*
X136501Y192332D01*
X135000Y224999D02*
Y221000D01*
X133001D01*
X132334Y221666D01*
Y224332D01*
X133001Y224999D01*
X135000D01*
X131001Y221000D02*
X129668D01*
X130335D01*
Y224999D01*
X131001Y224332D01*
X205832Y208666D02*
X206499Y207999D01*
Y206666D01*
X205832Y206000D01*
X203167D01*
X202500Y206666D01*
Y207999D01*
X203167Y208666D01*
X202500Y209999D02*
Y211332D01*
Y210665D01*
X206499D01*
X205832Y209999D01*
Y213331D02*
X206499Y213997D01*
Y215330D01*
X205832Y215997D01*
X205166D01*
X204499Y215330D01*
Y214664D01*
Y215330D01*
X203833Y215997D01*
X203167D01*
X202500Y215330D01*
Y213997D01*
X203167Y213331D01*
X174834Y231832D02*
X175501Y232499D01*
X176833D01*
X177500Y231832D01*
Y229166D01*
X176833Y228500D01*
X175501D01*
X174834Y229166D01*
X170835Y232499D02*
X172168Y231832D01*
X173501Y230499D01*
Y229166D01*
X172835Y228500D01*
X171502D01*
X170835Y229166D01*
Y229833D01*
X171502Y230499D01*
X173501D01*
X184834Y231832D02*
X185501Y232499D01*
X186834D01*
X187500Y231832D01*
Y229166D01*
X186834Y228500D01*
X185501D01*
X184834Y229166D01*
X180835Y232499D02*
X183501D01*
Y230499D01*
X182168Y231166D01*
X181502D01*
X180835Y230499D01*
Y229166D01*
X181502Y228500D01*
X182835D01*
X183501Y229166D01*
X168332Y226166D02*
X168999Y225499D01*
Y224166D01*
X168332Y223500D01*
X165666D01*
X165000Y224166D01*
Y225499D01*
X165666Y226166D01*
X165000Y229498D02*
X168999D01*
X166999Y227499D01*
Y230165D01*
X153332Y226166D02*
X153999Y225499D01*
Y224166D01*
X153332Y223500D01*
X150666D01*
X150000Y224166D01*
Y225499D01*
X150666Y226166D01*
X153332Y227499D02*
X153999Y228165D01*
Y229498D01*
X153332Y230165D01*
X152666D01*
X151999Y229498D01*
Y228832D01*
Y229498D01*
X151333Y230165D01*
X150666D01*
X150000Y229498D01*
Y228165D01*
X150666Y227499D01*
X144834Y231832D02*
X145501Y232499D01*
X146834D01*
X147500Y231832D01*
Y229166D01*
X146834Y228500D01*
X145501D01*
X144834Y229166D01*
X140835Y228500D02*
X143501D01*
X140835Y231166D01*
Y231832D01*
X141502Y232499D01*
X142835D01*
X143501Y231832D01*
X159834Y206832D02*
X160501Y207499D01*
X161834D01*
X162500Y206832D01*
Y204167D01*
X161834Y203500D01*
X160501D01*
X159834Y204167D01*
X158501Y203500D02*
X157168D01*
X157835D01*
Y207499D01*
X158501Y206832D01*
X121332Y168166D02*
X121999Y167499D01*
Y166166D01*
X121332Y165500D01*
X118667D01*
X118000Y166166D01*
Y167499D01*
X118667Y168166D01*
X118000Y169499D02*
Y170832D01*
Y170165D01*
X121999D01*
X121332Y169499D01*
X118667Y172831D02*
X118000Y173497D01*
Y174830D01*
X118667Y175497D01*
X121332D01*
X121999Y174830D01*
Y173497D01*
X121332Y172831D01*
X120666D01*
X119999Y173497D01*
Y175497D01*
X147334Y159332D02*
X148001Y159999D01*
X149334D01*
X150000Y159332D01*
Y156667D01*
X149334Y156000D01*
X148001D01*
X147334Y156667D01*
X146001Y156000D02*
X144668D01*
X145335D01*
Y159999D01*
X146001Y159332D01*
X142669D02*
X142003Y159999D01*
X140670D01*
X140003Y159332D01*
Y158666D01*
X140670Y157999D01*
X140003Y157333D01*
Y156667D01*
X140670Y156000D01*
X142003D01*
X142669Y156667D01*
Y157333D01*
X142003Y157999D01*
X142669Y158666D01*
Y159332D01*
X142003Y157999D02*
X140670D01*
X121332Y155166D02*
X121999Y154499D01*
Y153166D01*
X121332Y152500D01*
X118667D01*
X118000Y153166D01*
Y154499D01*
X118667Y155166D01*
X118000Y156499D02*
Y157832D01*
Y157165D01*
X121999D01*
X121332Y156499D01*
X121999Y159831D02*
Y162497D01*
X121332D01*
X118667Y159831D01*
X118000D01*
X183334Y194332D02*
X184001Y194999D01*
X185334D01*
X186000Y194332D01*
Y191666D01*
X185334Y191000D01*
X184001D01*
X183334Y191666D01*
X182001Y191000D02*
X180668D01*
X181335D01*
Y194999D01*
X182001Y194332D01*
X176003Y194999D02*
X177336Y194332D01*
X178669Y192999D01*
Y191666D01*
X178003Y191000D01*
X176670D01*
X176003Y191666D01*
Y192333D01*
X176670Y192999D01*
X178669D01*
X180334Y188332D02*
X181001Y188999D01*
X182334D01*
X183000Y188332D01*
Y185667D01*
X182334Y185000D01*
X181001D01*
X180334Y185667D01*
X179001Y185000D02*
X177668D01*
X178335D01*
Y188999D01*
X179001Y188332D01*
X173003Y188999D02*
X175669D01*
Y186999D01*
X174336Y187666D01*
X173670D01*
X173003Y186999D01*
Y185667D01*
X173670Y185000D01*
X175003D01*
X175669Y185667D01*
X115332Y161666D02*
X115999Y160999D01*
Y159667D01*
X115332Y159000D01*
X112666D01*
X112000Y159667D01*
Y160999D01*
X112666Y161666D01*
X112000Y162999D02*
Y164332D01*
Y163665D01*
X115999D01*
X115332Y162999D01*
X112000Y168330D02*
X115999D01*
X113999Y166331D01*
Y168997D01*
X238332Y211166D02*
X238999Y210499D01*
Y209166D01*
X238332Y208500D01*
X235666D01*
X235000Y209166D01*
Y210499D01*
X235666Y211166D01*
X235000Y212499D02*
Y213832D01*
Y213165D01*
X238999D01*
X238332Y212499D01*
X235000Y218497D02*
Y215831D01*
X237666Y218497D01*
X238332D01*
X238999Y217830D01*
Y216497D01*
X238332Y215831D01*
Y171166D02*
X238999Y170499D01*
Y169167D01*
X238332Y168500D01*
X235666D01*
X235000Y169167D01*
Y170499D01*
X235666Y171166D01*
X235000Y172499D02*
Y173832D01*
Y173165D01*
X238999D01*
X238332Y172499D01*
X235000Y175831D02*
Y177164D01*
Y176497D01*
X238999D01*
X238332Y175831D01*
X228332Y223666D02*
X228999Y222999D01*
Y221666D01*
X228332Y221000D01*
X225666D01*
X225000Y221666D01*
Y222999D01*
X225666Y223666D01*
X225000Y224999D02*
Y226332D01*
Y225665D01*
X228999D01*
X228332Y224999D01*
Y228331D02*
X228999Y228997D01*
Y230330D01*
X228332Y230997D01*
X225666D01*
X225000Y230330D01*
Y228997D01*
X225666Y228331D01*
X228332D01*
X220832Y173666D02*
X221499Y172999D01*
Y171667D01*
X220832Y171000D01*
X218166D01*
X217500Y171667D01*
Y172999D01*
X218166Y173666D01*
Y174999D02*
X217500Y175665D01*
Y176998D01*
X218166Y177664D01*
X220832D01*
X221499Y176998D01*
Y175665D01*
X220832Y174999D01*
X220166D01*
X219499Y175665D01*
Y177664D01*
X222332Y223666D02*
X222999Y222999D01*
Y221666D01*
X222332Y221000D01*
X219666D01*
X219000Y221666D01*
Y222999D01*
X219666Y223666D01*
X222332Y224999D02*
X222999Y225665D01*
Y226998D01*
X222332Y227664D01*
X221666D01*
X220999Y226998D01*
X220333Y227664D01*
X219666D01*
X219000Y226998D01*
Y225665D01*
X219666Y224999D01*
X220333D01*
X220999Y225665D01*
X221666Y224999D01*
X222332D01*
X220999Y225665D02*
Y226998D01*
X215832Y221166D02*
X216499Y220499D01*
Y219166D01*
X215832Y218500D01*
X213166D01*
X212500Y219166D01*
Y220499D01*
X213166Y221166D01*
X216499Y222499D02*
Y225165D01*
X215832D01*
X213166Y222499D01*
X212500D01*
X234832Y143666D02*
X235499Y142999D01*
Y141666D01*
X234832Y141000D01*
X232166D01*
X231500Y141666D01*
Y142999D01*
X232166Y143666D01*
X231500Y147664D02*
Y144999D01*
X234166Y147664D01*
X234832D01*
X235499Y146998D01*
Y145665D01*
X234832Y144999D01*
X235499Y151663D02*
Y148997D01*
X233499D01*
X234166Y150330D01*
Y150997D01*
X233499Y151663D01*
X232166D01*
X231500Y150997D01*
Y149664D01*
X232166Y148997D01*
X229832Y143666D02*
X230499Y142999D01*
Y141666D01*
X229832Y141000D01*
X227166D01*
X226500Y141666D01*
Y142999D01*
X227166Y143666D01*
X226500Y147664D02*
Y144999D01*
X229166Y147664D01*
X229832D01*
X230499Y146998D01*
Y145665D01*
X229832Y144999D01*
X226500Y150997D02*
X230499D01*
X228499Y148997D01*
Y151663D01*
X151332Y143166D02*
X151999Y142499D01*
Y141166D01*
X151332Y140500D01*
X148667D01*
X148000Y141166D01*
Y142499D01*
X148667Y143166D01*
X148000Y147164D02*
Y144499D01*
X150666Y147164D01*
X151332D01*
X151999Y146498D01*
Y145165D01*
X151332Y144499D01*
Y148497D02*
X151999Y149164D01*
Y150497D01*
X151332Y151163D01*
X150666D01*
X149999Y150497D01*
Y149830D01*
Y150497D01*
X149333Y151163D01*
X148667D01*
X148000Y150497D01*
Y149164D01*
X148667Y148497D01*
X146332Y143166D02*
X146999Y142499D01*
Y141166D01*
X146332Y140500D01*
X143667D01*
X143000Y141166D01*
Y142499D01*
X143667Y143166D01*
X143000Y147164D02*
Y144499D01*
X145666Y147164D01*
X146332D01*
X146999Y146498D01*
Y145165D01*
X146332Y144499D01*
X143000Y151163D02*
Y148497D01*
X145666Y151163D01*
X146332D01*
X146999Y150497D01*
Y149164D01*
X146332Y148497D01*
X136332Y143166D02*
X136999Y142499D01*
Y141166D01*
X136332Y140500D01*
X133667D01*
X133000Y141166D01*
Y142499D01*
X133667Y143166D01*
X133000Y147164D02*
Y144499D01*
X135666Y147164D01*
X136332D01*
X136999Y146498D01*
Y145165D01*
X136332Y144499D01*
X133000Y148497D02*
Y149830D01*
Y149164D01*
X136999D01*
X136332Y148497D01*
X141332Y143166D02*
X141999Y142499D01*
Y141166D01*
X141332Y140500D01*
X138666D01*
X138000Y141166D01*
Y142499D01*
X138666Y143166D01*
X138000Y147164D02*
Y144499D01*
X140666Y147164D01*
X141332D01*
X141999Y146498D01*
Y145165D01*
X141332Y144499D01*
Y148497D02*
X141999Y149164D01*
Y150497D01*
X141332Y151163D01*
X138666D01*
X138000Y150497D01*
Y149164D01*
X138666Y148497D01*
X141332D01*
X145499Y122166D02*
Y120833D01*
Y121499D01*
X142166D01*
X141500Y120833D01*
Y120167D01*
X142166Y119500D01*
X145499Y126164D02*
Y123499D01*
X143499D01*
X144166Y124832D01*
Y125498D01*
X143499Y126164D01*
X142166D01*
X141500Y125498D01*
Y124165D01*
X142166Y123499D01*
X176000Y163999D02*
X173334D01*
X174667D01*
Y160000D01*
X172001D02*
Y163999D01*
X170002D01*
X169335Y163332D01*
Y161999D01*
X170002Y161333D01*
X172001D01*
X168003Y160000D02*
X166670D01*
X167336D01*
Y163999D01*
X168003Y163332D01*
X197500Y170999D02*
X194834D01*
X196167D01*
Y167000D01*
X193501D02*
Y170999D01*
X191502D01*
X190835Y170332D01*
Y168999D01*
X191502Y168333D01*
X193501D01*
X186837Y167000D02*
X189503D01*
X186837Y169666D01*
Y170332D01*
X187503Y170999D01*
X188836D01*
X189503Y170332D01*
X176000Y171999D02*
X173334D01*
X174667D01*
Y168000D01*
X172001D02*
Y171999D01*
X170002D01*
X169335Y171332D01*
Y169999D01*
X170002Y169333D01*
X172001D01*
X168003Y171332D02*
X167336Y171999D01*
X166003D01*
X165337Y171332D01*
Y170666D01*
X166003Y169999D01*
X166670D01*
X166003D01*
X165337Y169333D01*
Y168667D01*
X166003Y168000D01*
X167336D01*
X168003Y168667D01*
D49*
X158524Y195606D02*
Y196394D01*
X161476Y195606D02*
Y196394D01*
X148051Y215941D02*
Y221059D01*
X141949Y215941D02*
Y221059D01*
X151024Y215606D02*
Y216394D01*
X153976Y215606D02*
Y216394D01*
X166024Y215606D02*
Y216394D01*
X168976Y215606D02*
Y216394D01*
X188051Y215941D02*
Y221059D01*
X181949Y215941D02*
Y221059D01*
X178051Y215941D02*
Y221059D01*
X171949Y215941D02*
Y221059D01*
X219150Y213106D02*
Y213894D01*
X222102Y213106D02*
Y213894D01*
X231976Y171606D02*
Y172394D01*
X229024Y171606D02*
Y172394D01*
X229150Y213106D02*
Y213894D01*
X232102Y213106D02*
Y213894D01*
X142551Y173441D02*
Y178559D01*
X136449Y173441D02*
Y178559D01*
X172606Y182976D02*
X173394D01*
X172606Y180024D02*
X173394D01*
X162976Y150606D02*
Y151394D01*
X160024Y150606D02*
Y151394D01*
X156476Y150606D02*
Y151394D01*
X153524Y150606D02*
Y151394D01*
X166024Y150606D02*
Y151394D01*
X168976Y150606D02*
Y151394D01*
X172024Y150606D02*
Y151394D01*
X174976Y150606D02*
Y151394D01*
X214551Y149441D02*
Y154559D01*
X208449Y149441D02*
Y154559D01*
X224551Y149441D02*
Y154559D01*
X218449Y149441D02*
Y154559D01*
X170335Y198697D02*
X174665D01*
X170335Y208303D02*
X174665D01*
X167630Y187000D02*
Y189000D01*
X160130Y187000D02*
Y189000D01*
X235000Y159000D02*
X237000D01*
X187000Y176500D02*
Y178500D01*
Y180000D02*
Y182000D01*
Y183500D02*
Y185500D01*
X180130Y149000D02*
Y151000D01*
X181130Y145000D02*
Y147000D01*
X180130Y152500D02*
Y154500D01*
X198500Y148500D02*
X200500D01*
X202500D02*
X204500D01*
D80*
X158071Y192890D02*
G03*
X158071Y192890I-984J0D01*
G01*
X232102Y200842D02*
G03*
X232102Y200842I-984J0D01*
G01*
X153563Y179150D02*
G03*
X153563Y179150I-984J0D01*
G01*
D81*
X227854Y119732D02*
Y126819D01*
X147146Y119732D02*
X227854D01*
X147146D02*
Y126819D01*
M02*
