G04 Layer_Color=8388736*
%FSLAX25Y25*%
%MOIN*%
G70*
G01*
G75*
%ADD49R,0.04734X0.03159*%
%ADD50R,0.03156X0.04337*%
%ADD51R,0.03156X0.01581*%
%ADD52R,0.02765X0.02568*%
%ADD53C,0.04500*%
%ADD54C,0.28159*%
%ADD55C,0.06600*%
%ADD56R,0.06600X0.06600*%
%ADD57O,0.11236X0.05331*%
%ADD58O,0.09268X0.05331*%
D49*
X232669Y185768D02*
D03*
X216331D02*
D03*
X232669Y194232D02*
D03*
X216331D02*
D03*
Y214232D02*
D03*
X232669D02*
D03*
X216331Y205768D02*
D03*
X232669D02*
D03*
D50*
X124624Y164705D02*
D03*
Y140295D02*
D03*
D51*
Y161358D02*
D03*
Y159390D02*
D03*
Y157421D02*
D03*
Y155453D02*
D03*
Y153484D02*
D03*
Y151516D02*
D03*
Y149547D02*
D03*
Y147579D02*
D03*
Y145610D02*
D03*
Y143642D02*
D03*
X129743Y140689D02*
D03*
Y142657D02*
D03*
Y144626D02*
D03*
Y146595D02*
D03*
Y148563D02*
D03*
Y150531D02*
D03*
Y154469D02*
D03*
Y156437D02*
D03*
Y158405D02*
D03*
Y160374D02*
D03*
Y162343D02*
D03*
Y164311D02*
D03*
D52*
X210500Y213630D02*
D03*
Y217370D02*
D03*
D53*
X205000Y226000D02*
D03*
Y234000D02*
D03*
X235000Y230000D02*
D03*
D54*
X115000Y115000D02*
D03*
X257500Y222500D02*
D03*
Y115000D02*
D03*
X115000Y222500D02*
D03*
D55*
X127500Y197500D02*
D03*
Y187500D02*
D03*
X117500Y197500D02*
D03*
Y187500D02*
D03*
X107500Y197500D02*
D03*
X165000Y232500D02*
D03*
X145000D02*
D03*
X175000D02*
D03*
X155000D02*
D03*
X185000D02*
D03*
D56*
X107500Y187500D02*
D03*
X135000Y232500D02*
D03*
D57*
X107026Y135492D02*
D03*
Y169508D02*
D03*
D58*
X128128Y135492D02*
D03*
Y169508D02*
D03*
M02*
