G04 Layer_Color=128*
%FSLAX25Y25*%
%MOIN*%
G70*
G01*
G75*
%ADD15R,0.02165X0.01968*%
%ADD29R,0.02362X0.03543*%
%ADD30R,0.03347X0.03347*%
%ADD31R,0.10433X0.09055*%
%ADD32R,0.01181X0.05512*%
%ADD33R,0.01968X0.02165*%
%ADD34O,0.03347X0.00984*%
%ADD35O,0.00984X0.03347*%
%ADD36R,0.14173X0.14173*%
%ADD37O,0.00984X0.02559*%
%ADD38O,0.02559X0.00984*%
%ADD39R,0.05709X0.05709*%
%ADD40R,0.04331X0.10394*%
%ADD41R,0.06890X0.03937*%
%ADD42R,0.03740X0.03347*%
%ADD43R,0.02520X0.02520*%
%ADD44R,0.03347X0.03347*%
%ADD45R,0.02520X0.02520*%
%ADD46R,0.03347X0.03740*%
D15*
X236000Y157130D02*
D03*
Y160870D02*
D03*
X203500Y146630D02*
D03*
Y150370D02*
D03*
X199500Y146630D02*
D03*
Y150370D02*
D03*
D29*
X153740Y204110D02*
D03*
X150000D02*
D03*
X146260D02*
D03*
Y192890D02*
D03*
X150000D02*
D03*
X153740D02*
D03*
D30*
X123406Y216000D02*
D03*
X136594D02*
D03*
D31*
X224016Y133315D02*
D03*
X150984D02*
D03*
D32*
X216043Y138236D02*
D03*
X214075D02*
D03*
X210138D02*
D03*
X208169D02*
D03*
X206201D02*
D03*
X202264D02*
D03*
X200295D02*
D03*
X198327D02*
D03*
X194390D02*
D03*
X192421D02*
D03*
X190453D02*
D03*
X184547D02*
D03*
X182579D02*
D03*
X180610D02*
D03*
X176673D02*
D03*
X174705D02*
D03*
X172736D02*
D03*
X168799D02*
D03*
X166831D02*
D03*
X164862D02*
D03*
X160925D02*
D03*
X158957D02*
D03*
X212106D02*
D03*
X204232D02*
D03*
X196358D02*
D03*
X188484D02*
D03*
X186516D02*
D03*
X178642D02*
D03*
X170768D02*
D03*
X162894D02*
D03*
D33*
X178260Y150000D02*
D03*
X182000D02*
D03*
X162000Y188000D02*
D03*
X158260D02*
D03*
X169500D02*
D03*
X165760D02*
D03*
X188870Y184500D02*
D03*
X185130D02*
D03*
X188870Y181000D02*
D03*
X185130D02*
D03*
X188870Y177500D02*
D03*
X185130D02*
D03*
X178260Y153500D02*
D03*
X182000D02*
D03*
X179260Y146000D02*
D03*
X183000D02*
D03*
D34*
X227575Y197890D02*
D03*
Y195921D02*
D03*
Y193953D02*
D03*
Y191984D02*
D03*
Y190016D02*
D03*
Y188047D02*
D03*
Y186079D02*
D03*
Y184110D02*
D03*
X208677D02*
D03*
Y186079D02*
D03*
Y188047D02*
D03*
Y190016D02*
D03*
Y191984D02*
D03*
Y193953D02*
D03*
Y195921D02*
D03*
Y197890D02*
D03*
D35*
X225016Y181551D02*
D03*
X223047D02*
D03*
X221079D02*
D03*
X219110D02*
D03*
X217142D02*
D03*
X215173D02*
D03*
X213205D02*
D03*
X211236D02*
D03*
Y200449D02*
D03*
X213205D02*
D03*
X215173D02*
D03*
X217142D02*
D03*
X219110D02*
D03*
X221079D02*
D03*
X223047D02*
D03*
X225016D02*
D03*
D36*
X218126Y191000D02*
D03*
D37*
X155532Y176000D02*
D03*
X157500D02*
D03*
X159468D02*
D03*
Y166157D02*
D03*
X157500D02*
D03*
X155532D02*
D03*
D38*
X162421Y174031D02*
D03*
Y172063D02*
D03*
Y170095D02*
D03*
Y168126D02*
D03*
X152579D02*
D03*
Y170095D02*
D03*
Y172063D02*
D03*
Y174031D02*
D03*
D39*
X157500Y171079D02*
D03*
D40*
X178327Y203500D02*
D03*
X166673D02*
D03*
D41*
X211500Y158004D02*
D03*
Y145996D02*
D03*
X175000Y224504D02*
D03*
Y212496D02*
D03*
X185000Y224504D02*
D03*
Y212496D02*
D03*
X145000Y224504D02*
D03*
Y212496D02*
D03*
X139500Y182004D02*
D03*
Y169996D02*
D03*
X221500Y158004D02*
D03*
Y145996D02*
D03*
D42*
X161500Y154150D02*
D03*
Y147850D02*
D03*
X167500Y212850D02*
D03*
Y219150D02*
D03*
X152500Y212850D02*
D03*
Y219150D02*
D03*
X160000Y192850D02*
D03*
Y199150D02*
D03*
X230626Y210350D02*
D03*
Y216650D02*
D03*
X230500Y175150D02*
D03*
Y168850D02*
D03*
X220626Y210350D02*
D03*
Y216650D02*
D03*
X173500Y147850D02*
D03*
Y154150D02*
D03*
X167500Y147850D02*
D03*
Y154150D02*
D03*
X155000Y154150D02*
D03*
Y147850D02*
D03*
D43*
X215626Y209228D02*
D03*
Y212772D02*
D03*
X210626Y209228D02*
D03*
Y212772D02*
D03*
X146500Y181772D02*
D03*
Y178228D02*
D03*
Y170728D02*
D03*
Y174272D02*
D03*
X225626Y209228D02*
D03*
Y212772D02*
D03*
Y175272D02*
D03*
Y171728D02*
D03*
D44*
X160000Y225095D02*
D03*
Y211906D02*
D03*
X137500Y196000D02*
D03*
Y209189D02*
D03*
D45*
X146772Y163500D02*
D03*
X143228D02*
D03*
X170228Y176000D02*
D03*
X173772D02*
D03*
D46*
X169850Y181500D02*
D03*
X176150D02*
D03*
M02*
