G04 Layer_Color=128*
%FSLAX25Y25*%
%MOIN*%
G70*
G01*
G75*
%ADD14R,0.02165X0.01968*%
%ADD27R,0.03740X0.03347*%
%ADD28R,0.06890X0.03937*%
%ADD29R,0.02520X0.02520*%
%ADD30R,0.02520X0.02520*%
%ADD31R,0.03347X0.03740*%
%ADD32R,0.03347X0.03347*%
%ADD33R,0.03347X0.03347*%
%ADD35R,0.04331X0.10394*%
%ADD36R,0.01968X0.02165*%
%ADD37R,0.02362X0.03543*%
%ADD38R,0.14173X0.14173*%
%ADD39O,0.00984X0.03347*%
%ADD40O,0.03347X0.00984*%
%ADD41R,0.05709X0.05709*%
%ADD42O,0.02559X0.00984*%
%ADD43O,0.00984X0.02559*%
%ADD44R,0.10433X0.09055*%
%ADD45R,0.01181X0.05512*%
D14*
X236000Y160870D02*
D03*
Y157130D02*
D03*
X199500Y150370D02*
D03*
Y146630D02*
D03*
X203500Y150370D02*
D03*
Y146630D02*
D03*
D27*
X160000Y199150D02*
D03*
Y192850D02*
D03*
X152500Y219150D02*
D03*
Y212850D02*
D03*
X167500Y219150D02*
D03*
Y212850D02*
D03*
X220626Y216650D02*
D03*
Y210350D02*
D03*
X230500Y168850D02*
D03*
Y175150D02*
D03*
X230626Y216650D02*
D03*
Y210350D02*
D03*
X161500Y147850D02*
D03*
Y154150D02*
D03*
X155000Y147850D02*
D03*
Y154150D02*
D03*
X167500Y154150D02*
D03*
Y147850D02*
D03*
X173500Y154150D02*
D03*
Y147850D02*
D03*
D28*
X145000Y212496D02*
D03*
Y224504D02*
D03*
X185000Y212496D02*
D03*
Y224504D02*
D03*
X175000Y212496D02*
D03*
Y224504D02*
D03*
X139500Y169996D02*
D03*
Y182004D02*
D03*
X211500Y145996D02*
D03*
Y158004D02*
D03*
X221500Y145996D02*
D03*
Y158004D02*
D03*
D29*
X215626Y212772D02*
D03*
Y209228D02*
D03*
X225626Y171728D02*
D03*
Y175272D02*
D03*
Y212772D02*
D03*
Y209228D02*
D03*
X210626Y212772D02*
D03*
Y209228D02*
D03*
X146500Y174272D02*
D03*
Y170728D02*
D03*
Y178228D02*
D03*
Y181772D02*
D03*
D30*
X173772Y176000D02*
D03*
X170228D02*
D03*
X143228Y163500D02*
D03*
X146772D02*
D03*
D31*
X176150Y181500D02*
D03*
X169850D02*
D03*
D32*
X136594Y216000D02*
D03*
X123406D02*
D03*
D33*
X137500Y209189D02*
D03*
Y196000D02*
D03*
X160000Y211906D02*
D03*
Y225095D02*
D03*
D35*
X166673Y203500D02*
D03*
X178327D02*
D03*
D36*
X165760Y188000D02*
D03*
X169500D02*
D03*
X158260D02*
D03*
X162000D02*
D03*
X185130Y177500D02*
D03*
X188870D02*
D03*
X185130Y181000D02*
D03*
X188870D02*
D03*
X185130Y184500D02*
D03*
X188870D02*
D03*
X182000Y150000D02*
D03*
X178260D02*
D03*
X183000Y146000D02*
D03*
X179260D02*
D03*
X182000Y153500D02*
D03*
X178260D02*
D03*
D37*
X153740Y192890D02*
D03*
X150000D02*
D03*
X146260D02*
D03*
Y204110D02*
D03*
X150000D02*
D03*
X153740D02*
D03*
D38*
X218126Y191000D02*
D03*
D39*
X225016Y200449D02*
D03*
X223047D02*
D03*
X221079D02*
D03*
X219110D02*
D03*
X217142D02*
D03*
X215173D02*
D03*
X213205D02*
D03*
X211236D02*
D03*
Y181551D02*
D03*
X213205D02*
D03*
X215173D02*
D03*
X217142D02*
D03*
X219110D02*
D03*
X221079D02*
D03*
X223047D02*
D03*
X225016D02*
D03*
D40*
X208677Y197890D02*
D03*
Y195921D02*
D03*
Y193953D02*
D03*
Y191984D02*
D03*
Y190016D02*
D03*
Y188047D02*
D03*
Y186079D02*
D03*
Y184110D02*
D03*
X227575D02*
D03*
Y186079D02*
D03*
Y188047D02*
D03*
Y190016D02*
D03*
Y191984D02*
D03*
Y193953D02*
D03*
Y195921D02*
D03*
Y197890D02*
D03*
D41*
X157500Y171079D02*
D03*
D42*
X152579Y174031D02*
D03*
Y172063D02*
D03*
Y170095D02*
D03*
Y168126D02*
D03*
X162421D02*
D03*
Y170095D02*
D03*
Y172063D02*
D03*
Y174031D02*
D03*
D43*
X155532Y166157D02*
D03*
X157500D02*
D03*
X159468D02*
D03*
Y176000D02*
D03*
X157500D02*
D03*
X155532D02*
D03*
D44*
X150984Y133315D02*
D03*
X224016D02*
D03*
D45*
X162894Y138236D02*
D03*
X170768D02*
D03*
X178642D02*
D03*
X186516D02*
D03*
X188484D02*
D03*
X196358D02*
D03*
X204232D02*
D03*
X212106D02*
D03*
X158957D02*
D03*
X160925D02*
D03*
X164862D02*
D03*
X166831D02*
D03*
X168799D02*
D03*
X172736D02*
D03*
X174705D02*
D03*
X176673D02*
D03*
X180610D02*
D03*
X182579D02*
D03*
X184547D02*
D03*
X190453D02*
D03*
X192421D02*
D03*
X194390D02*
D03*
X198327D02*
D03*
X200295D02*
D03*
X202264D02*
D03*
X206201D02*
D03*
X208169D02*
D03*
X210138D02*
D03*
X214075D02*
D03*
X216043D02*
D03*
M02*
